<?xml version="1.0" encoding="UTF-8"?>
<svg width="84px" height="84px" viewBox="0 0 84 84" version="1.1" xmlns="http://www.w3.org/2000/svg" xmlns:xlink="http://www.w3.org/1999/xlink">
    <title>logo-food-network</title>
    <g id="Page-1" stroke="none" stroke-width="1" fill="none" fill-rule="evenodd" opacity="0.7">
        <g id="logo-food-network" fill="#020203" fill-rule="nonzero">
            <g id="Group">
                <path d="M41.7,0 C18.7,0 0,18.7 0,41.7 C0,49.1 1.9,56.1 5.3,62.1 C7.3,61 7.6,60 8.5,56 C8.9,54.2 10.4,40.8 11.1,34.1 L8.5,34.1 L8.7,32.7 L11.2,32.7 L11.6,30.5 C13.1,22 19.4,21.2 21.6,21.3 C22.8,21.3 25.1,21.9 25.1,23.5 C25.1,24.6 24.2,25 23.2,25 C21.7,25 21,24 20.3,22.8 C17.7,23.9 17.1,30 16.8,32.8 L20.1,32.8 L19.9,34.2 L16.7,34.2 C15.7,43.3 15,50.9 14.3,54.3 C13.3,59.2 9.4,62.4 6,63.4 C5.9,63.3 5.9,63.2 5.8,63.1 C13.1,75.3 26.4,83.4 41.6,83.4 C64.6,83.4 83.3003992,64.7 83.3003992,41.7 C83.4,18.7 64.7,0 41.7,0 Z M25.5,58.3 L24.4,58.3 L24.4,55.2 C24.4,54.6 24.2,54.4 23.8,54.4 C23.3,54.4 22.9,54.7 22.7,54.9 L22.7,58.3 L21.6,58.3 L21.6,53.5 L22.6,53.5 L22.6,54 C23,53.7 23.5,53.4 24.1,53.4 C25,53.4 25.5,54 25.5,55 L25.5,58.3 L25.5,58.3 Z M20,44.6 C20,38.1 24.2,32.5 31.3,32.5 C35.6,32.5 38.2,34.4 38.2,38.6 C38.2,45.1 34,50.7 26.9,50.7 C22.5,50.7 20,48.8 20,44.6 Z M29.4,58.4 C28.2,58.4 27.4,57.4 27.4,55.9 C27.4,54.4 28.2,53.4 29.5,53.4 C30.7,53.4 31.4,54.4 31.4,55.6 L31.4,56.1 L28.5,56.1 C28.5,57.1 29,57.5 29.5,57.5 C30,57.5 30.3,57.3 30.6,56.9 L31.4,57.4 C31,58.1 30.3,58.4 29.4,58.4 Z M35.7,54.5 L34.8,54.5 L34.8,57.2 C34.8,57.5 34.9,57.5 35.2,57.5 C35.4,57.5 35.6,57.4 35.7,57.4 L35.7,58.3 C35.4,58.3 35.1,58.4 34.8,58.4 C34,58.4 33.6,58 33.6,57.3 L33.6,54.5 L32.9,54.5 L32.9,53.6 L33.6,53.6 L33.6,53.6 L33.6,52 L34.7,52 L34.7,53.6 L35.6,53.6 L35.6,54.5 L35.7,54.5 Z M41.8,58.3 L40.8,58.3 L40.1,55.3 L40.1,55.3 L39.4,58.3 L38.4,58.3 L37.2,53.5 L38.3,53.5 L38.9,56.5 L38.9,56.5 L39.6,53.5 L40.7,53.5 L41.4,56.5 L41.4,56.5 L42.1,53.5 L43.2,53.5 L41.8,58.3 Z M46.6,58.4 C45.3,58.4 44.5,57.4 44.5,55.9 C44.5,54.4 45.3,53.4 46.6,53.4 C47.9,53.4 48.7,54.4 48.7,55.9 C48.6,57.5 47.8,58.4 46.6,58.4 Z M52.9,54.7 C52.8,54.7 52.8,54.7 52.7,54.7 C52.1,54.7 51.6,55.4 51.6,55.5 L51.6,58.4 L50.5,58.4 L50.5,53.6 L51.5,53.6 L51.5,54.4 L51.5,54.4 C51.8,53.8 52.2,53.5 52.8,53.5 L52.8,54.7 L52.9,54.7 Z M46.5,50.7 C42.2,50.7 39.6,48.8 39.6,44.6 C39.6,38.1 43.8,32.5 50.9,32.5 C55.2,32.5 57.8,34.4 57.8,38.6 C57.8,45.1 53.6,50.7 46.5,50.7 Z M57.5,58.3 L56.4,56.2 L55.8,56.9 L55.8,58.4 L54.7,58.4 L54.7,51.7 L55.8,51.7 L55.8,55.4 L55.8,55.4 L57.2,53.6 L58.5,53.6 L57.1,55.4 L58.6,58.4 L57.5,58.4 L57.5,58.3 Z M78.7,22.8 C78.7,26.4 76,45.1 76,47 C76,47.5 76,48.2 76.5,48.2 C76.8,48.2 77.7,47.9 78.9,47.5 L79.3,48.6 C76.8,49.8 73.8,50.8 71.7,50.8 C70.6,50.8 70.7,49.1 70.7,48.4 C70.7,47.6 70.8,46.4 71,44.2 L70.9,44.1 C69.5,46.9 66.7,50.7 63.2,50.7 C60.4,50.7 59.2,47.8 59.2,45.3 C59.2,39.1 64.1,32.7 70.9,32.7 L72.3,32.7 C72.9,28.4 72.9,26.6 72.9,25.3 C72.9,24.9 72.9,24.5 72.4,24.5 C72,24.5 71.5,24.6 70.1,25 L69.8,23.9 C72.6,22.9 75.6,22.3 78.3,22.2 C78.5,22.2 78.7,22.2 78.7,22.8 Z" id="Shape"></path>
                <path d="M29.8,33.9 C26.1,33.9 25.6,40.9 25.6,43.5 C25.6,45.1 25.7,49.2 28.2,49.2 C31.9,49.2 32.4,42.2 32.4,39.6 C32.4,38 32.3,33.9 29.8,33.9 Z" id="Path"></path>
                <path d="M49.5,33.9 C45.8,33.9 45.3,40.9 45.3,43.5 C45.3,45.1 45.4,49.2 47.9,49.2 C51.6,49.2 52.1,42.2 52.1,39.6 C52.1,38 52,33.9 49.5,33.9 Z" id="Path"></path>
                <path d="M29.5,54.3 C29,54.3 28.6,54.7 28.6,55.3 L30.4,55.3 C30.4,54.7 30,54.3 29.5,54.3 Z" id="Path"></path>
                <path d="M65,44 C65,44.9 65.2,47 66.5,47 C68.2,47 69.8,44 70.3,42.7 C71.2,40.3 71.6,38 72.1,34.4 C71.9,34.3 71.7,34.3 71.5,34.3 C67,34.2 65,40.5 65,44 Z" id="Path"></path>
                <path d="M46.6,54.4 C46,54.4 45.7,54.9 45.7,56 C45.7,57.1 46,57.6 46.6,57.6 C47.2,57.6 47.5,57.1 47.5,56 C47.5,54.9 47.2,54.4 46.6,54.4 Z" id="Path"></path>
            </g>
        </g>
    </g>
</svg>