<?xml version="1.0" encoding="UTF-8"?>
<svg width="295px" height="64px" viewBox="0 0 295 64" version="1.1" xmlns="http://www.w3.org/2000/svg" xmlns:xlink="http://www.w3.org/1999/xlink">
    <title>logo-new-york</title>
    <g id="Page-1" stroke="none" stroke-width="1" fill="none" fill-rule="evenodd" opacity="0.7">
        <g id="logo-new-york" fill="#020203" fill-rule="nonzero">
            <g id="g3">
                <path d="M188.2,1.00070908 L187.9,1.90070908 C191.8,2.10070908 192.9,3.80070908 192.9,5.30070908 C192.9,6.20070908 192.6,7.20070908 191.9,8.30070908 C191.9,8.30070908 172.6,38.5007091 171.1,40.8007091 C171,40.4007091 163.1,6.80070908 163.1,6.80070908 C163,6.20070908 162.9,5.60070908 162.9,5.20070908 C162.9,2.90070908 164.7,2.10070908 168.2,1.90070908 L168.5,1.00070908 L153.2,1.00070908 L152.9,1.90070908 C156.2,2.00070908 158.1,2.90070908 159.1,7.10070908 C160.9,14.6007091 168,44.4007091 168.2,45.3007091 C160.8,56.1007091 154.6,62.4007091 144.6,62.4007091 C137.3,62.4007091 131.8,57.4007091 131.8,50.7007091 C131.8,44.1007091 137.1,38.6007091 143.6,38.6007091 C147.7,38.6007091 149.9,40.7007091 149.9,42.6007091 C149.9,43.7007091 149.3,44.3007091 148.8,44.6007091 C148.3,44.9007091 147.8,45.4007091 147.8,46.2007091 C147.8,47.0007091 148.4,47.6007091 149.3,47.6007091 C150.7,47.6007091 151.5,45.9007091 151.5,44.3007091 C151.5,40.2007091 148.5,37.7007091 143.8,37.7007091 C135.8,37.7007091 130.8,44.5007091 130.8,50.9007091 C130.8,57.1007091 136,63.4007091 144.7,63.4007091 C157.4,63.4007091 164.1,53.3007091 171.1,42.7007091 C171.1,42.7007091 191.5,11.0007091 193.6,7.80070908 C196.1,4.10070908 199.3,2.00070908 202.9,1.90070908 L203.2,1.00070908 L188.2,1.00070908 L188.2,1.00070908 Z M187,33.6007091 C187,40.9007091 191.8,44.7007091 196.6,44.7007091 C200.7,44.7007091 205,42.6007091 208.4,38.9007091 C211.8,35.1007091 213.8,30.1007091 213.8,25.1007091 C213.8,18.8007091 210.1,14.6007091 204.5,14.6007091 C195.8,14.5007091 187,24.1007091 187,33.6007091 L187,33.6007091 Z M190.3,34.7007091 C190.3,26.4007091 197.2,15.3007091 204.2,15.3007091 C209.2,15.3007091 210.2,19.8007091 210.2,23.5007091 C210.2,30.6007091 205.5,43.8007091 196.4,43.8007091 C192.7,43.9007091 190.3,40.4007091 190.3,34.7007091 Z M232.4,15.0007091 C232.4,15.0007091 227.3,15.1007091 227.3,15.1007091 C224.8,15.2007091 222.1,15.2007091 220.2,15.2007091 L220,15.9007091 C222.9,16.1007091 224,16.8007091 222.9,20.3007091 L217.1,39.5007091 C216.3,41.9007091 214.7,43.2007091 212.2,43.3007091 L211.9,44.0007091 L223.5,44.0007091 L223.7,43.3007091 C221.5,43.2007091 219.9,42.9007091 219.9,40.9007091 C219.9,40.5007091 220,40.0007091 220.2,39.4007091 C220.2,39.4007091 223,30.0007091 223.1,29.9007091 C223.2,29.9007091 228.3,29.9007091 228.4,29.9007091 C228.4,29.9007091 228.4,30.0007091 228.4,30.0007091 C230.7,34.6007091 233.6,40.4007091 235.3,44.0007091 L235.3,44.0007091 L250.8,44.0007091 L251,43.3007091 C248.8,43.3007091 247.1,42.8007091 247.1,40.9007091 C247.1,40.5007091 247.2,40.0007091 247.4,39.4007091 C247.4,39.4007091 249.7,31.7007091 249.8,31.4007091 C249.8,31.4007091 253.7,28.4007091 253.8,28.3007091 C259.1,39.0007091 268,56.9007091 285.4,56.9007091 C290.4,56.9007091 294.3,53.8007091 294.3,49.8007091 C294.3,46.8007091 292,45.1007091 289.9,45.1007091 C287.8,45.1007091 286.7,46.5007091 286.7,47.6007091 C286.7,48.2007091 287.2,48.6007091 287.7,48.6007091 C288.3,48.6007091 288.6,48.4007091 288.9,47.8007091 C289.2,47.2007091 289.9,46.7007091 290.7,46.7007091 C292.4,46.7007091 293.5,47.8007091 293.5,49.7007091 C293.5,53.1007091 290,55.8007091 285.6,55.8007091 C274.6,55.8007091 265.1,46.1007091 256.6,26.1007091 C256.7,26.0007091 266.7,18.4007091 266.7,18.4007091 C270,16.0007091 271.6,15.7007091 272.9,15.6007091 L273.1,14.9007091 L263.3,14.9007091 L263.1,15.6007091 C264.7,15.7007091 265.7,16.3007091 265.7,17.1007091 C265.7,17.7007091 265.1,18.5007091 264.1,19.4007091 C264.1,19.4007091 251.9,28.6007091 250.2,29.9007091 C250.3,29.4007091 253.3,19.9007091 253.3,19.9007091 C253.3,19.9007091 253.4,19.7007091 253.4,19.7007091 C254.3,17.2007091 254.8,15.8007091 258.4,15.6007091 L258.6,14.9007091 L247.6,14.9007091 L247.4,15.6007091 C249,15.7007091 250,16.0007091 250.4,16.6007091 C250.8,17.2007091 250.8,18.2007091 250.3,20.0007091 L244.5,39.2007091 C243.8,41.6007091 242.2,43.0007091 240.4,43.0007091 C238.8,43.0007091 237.7,42.0007091 236.4,39.3007091 C236.4,39.3007091 231.9,30.1007091 231.4,29.2007091 C235.9,28.4007091 241.1,25.6007091 241.1,20.6007091 C240.9,17.3007091 238.4,15.0007091 232.4,15.0007091 L232.4,15.0007091 Z M231.5,15.7007091 C236.7,15.7007091 237.8,18.3007091 237.8,20.5007091 C237.8,24.4007091 235.9,29.2007091 227.1,29.2007091 C227.1,29.2007091 223.4,29.2007091 223.2,29.2007091 C223.3,29.0007091 227.2,16.0007091 227.3,15.9007091 C227.9,15.8007091 229.8,15.7007091 231.5,15.7007091 L231.5,15.7007091 Z" id="path5"></path>
                <path d="M67.6,36.8007091 C63,28.7007091 56.8,15.9007091 53.5,1.00070908 L38.4,1.00070908 C34.5,1.00070908 27.9,1.80070908 27.9,7.40070908 C27.9,9.60070908 29.6,12.0007091 32.5,12.0007091 C35.1,12.0007091 36.4,10.3007091 36.4,9.10070908 C36.4,8.30070908 36,7.50070908 35,7.50070908 C34.1,7.50070908 33.6,8.30070908 33.6,9.10070908 C33.6,10.1007091 33,10.7007091 32,10.7007091 C30.1,10.7007091 28.8,9.30070908 28.8,7.30070908 C28.8,3.70070908 32,1.90070908 38.3,1.90070908 L44.8,1.90070908 C48.6,1.90070908 50.2,3.80070908 49.3,7.60070908 C42.8,30.4007091 29.9,54.7007091 13,54.7007091 C5.2,54.7007091 1.2,50.2007091 1.2,45.7007091 C1.2,42.5007091 3.4,40.0007091 5.4,40.0007091 C6.7,40.0007091 7.2,40.9007091 7.7,41.7007091 C8.1,42.5007091 8.6,43.3007091 9.7,43.3007091 C10.5,43.3007091 11.3,42.7007091 11.3,41.7007091 C11.3,39.9007091 9.3,38.5007091 6.5,38.5007091 C3.4,38.5007091 0,41.4007091 0,45.7007091 C0,51.6007091 5.5,55.8007091 13,55.8007091 C22,55.8007091 30.5,49.4007091 38.1,36.9007091 C45.4,24.9007091 49.3,11.4007091 50.5,7.10070908 C57.1,30.8007091 76.9,63.4007091 97.1,63.4007091 C102.5,63.4007091 106.3,60.4007091 106.3,56.1007091 C106.3,53.4007091 104.7,51.3007091 102.6,51.3007091 C101.4,51.3007091 100.5,51.8007091 100.5,52.7007091 C100.5,53.5007091 101.2,53.9007091 101.9,53.9007091 C102.2,53.9007091 102.5,53.8007091 102.8,53.7007091 C103,53.6007091 103.3,53.5007091 103.5,53.5007091 C104.6,53.5007091 105.4,54.7007091 105.4,56.2007091 C105.4,59.8007091 102,62.5007091 97.3,62.5007091 C87.6,62.5007091 78.1,54.5007091 68.3,38.0007091 C72.3,25.0007091 80.4,3.20070908 89.5,3.20070908 C91.1,3.20070908 92.2,3.60070908 93.1,4.00070908 C93.8,4.30070908 94.5,4.60070908 95.3,4.60070908 C97.3,4.60070908 97.8,3.40070908 97.8,2.70070908 C97.8,1.10070908 96.2,0.000353277002 93.8,0.000353277002 C80.6,-0.0992909234 72.5,20.9007091 67.6,36.8007091 L67.6,36.8007091 Z M137.1,15.1007091 L136.9,15.8007091 C139.4,16.0007091 140.1,17.3007091 140.1,18.4007091 C140.1,19.0007091 139.9,19.7007091 139.5,20.4007091 L129,40.6007091 L127.4,18.8007091 C127.2,16.5007091 128.5,15.9007091 130.9,15.9007091 L131.1,15.2007091 L121.1,15.2007091 L120.9,15.9007091 C123.4,16.1007091 124.1,17.0007091 124.1,18.0007091 C124.1,18.5007091 124,19.0007091 123.6,19.7007091 C123.6,19.7007091 113.3,40.6007091 113.3,40.6007091 L111.7,18.9007091 C111.6,16.4007091 112.8,16.1007091 115.1,16.0007091 L115.3,15.3007091 L105.1,15.3007091 L104.9,16.0007091 C107.8,16.2007091 108.7,17.0007091 108.9,19.7007091 L110.9,44.7007091 L112.1,44.7007091 L124.4,19.7007091 L126.4,44.7007091 L127.6,44.7007091 L140.2,20.7007091 C141.9,17.5007091 143.8,16.2007091 146.2,16.1007091 L146.4,15.4007091 L137.1,15.4007091 L137.1,15.1007091 Z M102.7,15.1007091 L83.1,15.1007091 L82.9,15.8007091 C84.5,15.9007091 85.5,16.2007091 85.9,16.8007091 C86.3,17.4007091 86.3,18.3007091 85.9,19.7007091 L79.9,39.6007091 C79.2,41.8007091 77.5,43.1007091 75,43.2007091 L74.7,43.9007091 L99.8,43.9007091 L104.1,35.4007091 L103.6,35.2007091 C100.1,40.8007091 94.8,43.2007091 85.7,43.2007091 C85.7,43.2007091 82.2,43.2007091 82,43.2007091 C82.1,43.0007091 86.2,29.3007091 86.2,29.2007091 C86.3,29.2007091 90.3,29.2007091 90.3,29.2007091 C92,29.2007091 93.1,29.6007091 93.7,30.3007091 C94.4,31.2007091 94.5,32.7007091 94,35.0007091 L94.6,35.0007091 L98.1,23.5007091 L97.5,23.5007091 C96.3,26.7007091 93.7,28.5007091 90.4,28.5007091 C90.4,28.5007091 86.6,28.5007091 86.4,28.5007091 C86.5,28.3007091 90.2,15.9007091 90.2,15.8007091 C90.3,15.8007091 94.1,15.8007091 94.1,15.8007091 C99,15.8007091 102.1,17.9007091 103.2,22.0007091 L103.7,21.9007091 L102.7,15.1007091 L102.7,15.1007091 L102.7,15.1007091 Z" id="path7"></path>
            </g>
        </g>
    </g>
</svg>