<?xml version="1.0" encoding="UTF-8"?>
<svg width="142px" height="57px" viewBox="0 0 142 57" version="1.1" xmlns="http://www.w3.org/2000/svg" xmlns:xlink="http://www.w3.org/1999/xlink">
    <title>logo-elle</title>
    <g id="Page-1" stroke="none" stroke-width="1" fill="none" fill-rule="evenodd" opacity="0.7">
        <g id="logo-elle" transform="translate(-0.000000, 0.000000)" fill="#020203">
            <g id="Page-1" transform="translate(0.000000, -0.000000)">
                <g id="Group" transform="translate(-0.000000, 0.000000)">
                    <path d="M4.0400364,55.2138308 L0,55.2138308 L0,56.5605096 L24.2402184,56.5605096 L24.2402184,41.7470428 L22.8935396,41.7470428 C22.8935396,41.7470428 22.8935396,49.8271156 20.200182,52.5204732 C17.5068244,55.2138308 14.8134668,55.2138308 10.7734304,55.2138308 L10.7734304,28.2802548 C10.7734304,28.2802548 13.466788,28.2802548 14.8134668,29.6269336 C17.5068244,30.9736124 17.5068244,33.66697 17.5068244,37.7070064 L18.8535032,37.7070064 L18.8535032,17.5068244 L17.5068244,17.5068244 C17.5068244,21.5468608 17.5068244,24.2402184 14.8134668,26.933576 C13.466788,26.933576 10.7734304,26.933576 10.7734304,26.933576 L10.7734304,1.3466788 C14.8134668,1.3466788 17.5068244,1.3466788 18.8535032,4.0400364 C22.8935396,6.733394 22.8935396,14.8134668 22.8935396,14.8134668 L22.8935396,14.8134668 L22.8935396,-2.99022762e-15 L0,-2.99022762e-15 L0,1.3466788 L4.0400364,1.3466788 L4.0400364,55.2138308 L4.0400364,55.2138308 Z" id="Shape"></path>
                    <path d="M51.1737944,1.3466788 L51.1737944,55.2138308 C55.2138308,55.2138308 57.9071884,55.2138308 60.600546,52.5204732 C63.2939036,49.8271156 63.2939036,41.7470428 63.2939036,41.7470428 L63.2939036,41.7470428 L63.2939036,56.5605096 L39.0536852,56.5605096 L39.0536852,55.2138308 L43.0937216,55.2138308 L43.0937216,1.3466788 L39.0536852,1.3466788 L39.0536852,-2.24267072e-15 L53.867152,-2.24267072e-15 L53.867152,1.3466788 L51.1737944,1.3466788 L51.1737944,1.3466788 L51.1737944,1.3466788 Z" id="path14"></path>
                    <path d="M88.8808008,1.3466788 L88.8808008,55.2138308 C92.9208372,55.2138308 95.6141948,55.2138308 98.3075524,52.5204732 C101.00091,49.8271156 101.00091,41.7470428 101.00091,41.7470428 L102.347589,41.7470428 L102.347589,56.5605096 L78.1073704,56.5605096 L78.1073704,55.2138308 L82.1474068,55.2138308 L82.1474068,1.3466788 L78.1073704,1.3466788 L78.1073704,-2.24267072e-15 L92.9208372,-2.24267072e-15 L92.9208372,1.3466788 L88.8808008,1.3466788 L88.8808008,1.3466788 L88.8808008,1.3466788 Z" id="path16"></path>
                    <path d="M121.201092,55.2138308 L117.161056,55.2138308 L117.161056,56.5605096 L141.401274,56.5605096 L141.401274,41.7470428 L140.054595,41.7470428 C140.054595,41.7470428 140.054595,49.8271156 137.361238,52.5204732 C134.66788,55.2138308 131.974522,55.2138308 127.934486,55.2138308 L127.934486,28.2802548 C127.934486,28.2802548 130.627844,28.2802548 131.974522,29.6269336 C134.66788,32.3202912 134.66788,35.0136488 134.66788,39.0536852 L136.014559,39.0536852 L136.014559,17.5068244 L134.66788,17.5068244 C134.66788,21.5468608 134.66788,24.2402184 131.974522,26.933576 C130.627844,28.2802548 127.934486,28.2802548 127.934486,28.2802548 L127.934486,1.3466788 C131.974522,1.3466788 134.66788,1.3466788 136.014559,4.0400364 C138.707916,6.733394 138.707916,14.8134668 138.707916,14.8134668 L140.054595,14.8134668 L140.054595,-2.24267072e-15 L117.161056,-2.24267072e-15 L117.161056,1.3466788 L121.201092,1.3466788 L121.201092,55.2138308 L121.201092,55.2138308 L121.201092,55.2138308 L121.201092,55.2138308 Z" id="path18"></path>
                </g>
            </g>
        </g>
    </g>
</svg>