<?xml version="1.0" encoding="UTF-8"?>
<svg width="223px" height="57px" viewBox="0 0 223 57" version="1.1" xmlns="http://www.w3.org/2000/svg" xmlns:xlink="http://www.w3.org/1999/xlink">
    <title>logo-vogue</title>
    <g id="Page-1" stroke="none" stroke-width="1" fill="none" fill-rule="evenodd" opacity="0.7">
        <g id="logo-vogue" fill="#020203" fill-rule="nonzero">
            <g id="g3863">
                <path d="M64.973875,0.19541957 C52.0421814,0.35312315 41.318338,14.7041489 41.318338,27.3204353 C41.318338,40.5675361 49.0458134,56.6533012 64.973875,56.6533012 C80.9019365,56.6533012 88.9448191,39.1482038 88.9448191,27.3204353 C88.9448191,14.2310382 77.9055685,0.0377159901 64.973875,0.19541957 Z M64.973875,0.66853031 C75.855422,0.66853031 78.85179,12.6540024 78.85179,27.3204353 C78.85179,46.5602721 75.3823112,56.1801905 64.973875,56.1801905 C54.7231423,56.1801905 51.4113671,48.2950115 51.4113671,27.3204353 C51.4113671,14.2310382 54.0923279,0.66853031 64.973875,0.66853031 Z" id="path3064"></path>
                <path d="M93.3605194,27.6358425 C93.3605194,13.2848167 104.715177,0.66853031 114.492799,0.0377159901 C117.962278,-0.27769117 122.535682,1.45704821 125.058939,2.56097327 C126.951382,3.34949117 130.893971,2.24556611 131.524786,0.0377159901 L131.840193,0.0377159901 L131.840193,19.5929599 L131.524786,19.5929599 C131.524786,18.804442 127.897603,0.66853031 114.335096,0.66853031 C104.39977,0.66853031 103.295845,18.1736277 103.295845,27.7935461 C103.295845,37.4134645 103.611252,56.3378941 115.281317,56.3378941 C120.958646,56.3378941 125.058939,53.8146368 126.162864,48.9258258 L126.162864,33.7862821 L121.431757,33.7862821 L121.431757,33.1554678 L139.883075,33.1554678 L139.883075,33.7862821 L135.309672,33.7862821 L135.309672,56.0224869 L134.994264,56.0224869 C134.994264,56.0224869 134.205747,52.8684153 130.578564,52.8684153 C125.847457,52.8684153 121.274053,56.9687084 115.754428,56.9687084 C101.245698,56.4955976 93.3605194,41.9868683 93.3605194,27.6358425 L93.3605194,27.6358425 Z" id="path3060"></path>
                <path d="M5.67732888,2.08786253 L7.17152852e-13,2.08786253 L7.17152852e-13,1.45704821 L20.0283547,1.45704821 L20.0283547,2.08786253 L14.9818401,2.08786253 L29.3328659,41.0406468 C33.7485661,27.3204353 37.2180449,17.0697026 41.9491523,2.08786253 L36.9026377,2.08786253 L36.9026377,1.45704821 L47.4687776,1.45704821 L47.4687776,2.08786253 L42.5799666,2.08786253 L25.2325728,56.3378941 L5.67732888,2.08786253 Z" id="path3058"></path>
                <path d="M142.72174,43.0907933 L142.564036,2.08786253 L137.044411,2.08786253 L137.044411,1.45704821 L157.072766,1.45704821 L157.072766,2.08786253 L151.55314,2.08786253 L151.710844,47.0333828 C152.972473,52.237601 155.022619,56.0224869 162.434687,56.1801905 C169.689052,56.1801905 174.735567,51.9221938 176.62801,45.7717542 L176.62801,1.93015895 L170.319866,1.93015895 L170.319866,1.29934463 L221.258123,1.29934463 L221.415826,21.0122921 L220.942716,21.0122921 C219.996494,8.23830215 215.107683,3.50719475 206.433986,2.08786253 C203.437618,1.61475179 200.44125,1.93015895 196.498661,1.93015895 L196.498661,27.0050282 C199.968139,27.3204353 203.595322,27.0050282 205.960875,24.9548816 C208.168726,23.0624387 208.79954,18.6467384 208.957244,16.7542955 L209.430354,16.7542955 L209.430354,38.6750931 L208.957244,38.6750931 C208.79954,38.6750931 208.641836,33.1554678 205.960875,30.6322105 C203.279915,27.9512497 199.810436,27.3204353 196.498661,27.9512497 L196.498661,54.7608583 C201.229768,54.7608583 205.014654,55.233969 208.326429,54.2877475 C218.419458,51.6067867 221.888937,43.0907933 221.888937,34.5748 L222.519751,34.5748 L222.519751,55.3916726 L182.463042,55.3916726 L182.463042,54.7608583 L187.036446,54.7608583 L187.036446,1.77245537 L177.258824,1.77245537 L177.258824,45.6140506 C176.154899,49.8720473 172.054606,56.8110048 161.64617,56.6533012 C152.341658,56.9687084 142.72174,52.5530081 142.72174,43.0907933 L142.72174,43.0907933 Z" id="path3054"></path>
            </g>
        </g>
    </g>
</svg>