<?xml version="1.0" encoding="UTF-8"?>
<svg width="249px" height="50px" viewBox="0 0 249 50" version="1.1" xmlns="http://www.w3.org/2000/svg" xmlns:xlink="http://www.w3.org/1999/xlink">
    <title>logo-wired</title>
    <g id="Page-1" stroke="none" stroke-width="1" fill="none" fill-rule="evenodd" opacity="0.7">
        <g id="logo-wired" transform="translate(0.000000, -0.000000)" fill="#020203" fill-rule="nonzero">
            <path d="M209.6,7.7 L209.6,42.1 L226.5,42.1 C231.2,42.1 234,41.4 236,39.6 C238.5,37.4 239.7,33.4 239.7,24.9 C239.7,16.4 238.5,12.4 236,10.2 C234,8.5 231.3,7.7 226.5,7.7 L209.6,7.7 Z M232.8,24.9 C232.8,32.4 232.3,34.1 230.8,35.1 C229.8,35.8 228.6,36.1 226.1,36.1 L216.6,36.1 L216.6,13.5 L226.1,13.5 C228.6,13.5 229.8,13.5 230.8,14.5 C232.3,15.7 232.8,17.4 232.8,24.9 Z M248.5,49.7 L198.8,49.7 L198.8,-3.55271368e-15 L248.5,-3.55271368e-15 L248.5,49.7 Z M158.2,13.5 L158.2,7.8 L187.6,7.8 L187.6,18.8 L181.4,18.8 L181.4,13.6 L169.4,13.6 L169.4,21.8 L178.9,21.8 L178.9,27.1 L169.4,27.1 L169.4,36.3 L181.6,36.3 L181.6,30.3 L187.8,30.3 L187.8,42.1 L158.2,42.1 L158.2,36.4 L162.9,36.4 L162.9,13.5 L158.2,13.5 Z M131.6,33.1 C131.6,36.8 131.8,39.6 132.3,41.8 L139,41.8 C138.7,40.1 138.5,36.8 138.5,32.6 C138.2,27.6 136.8,26.9 133.3,26.1 C137.3,25.4 139,23.6 139,17.4 C139,12.4 138.3,10.4 136.8,9.2 C135.8,8.2 134.1,7.7 131.3,7.7 L110.4,7.7 L110.4,42.1 L117.4,42.1 L117.4,28.6 L127.1,28.6 C129.1,28.6 129.8,28.8 130.6,29.3 C131.4,29.8 131.6,30.6 131.6,33.1 Z M117.4,23.2 L117.4,13.7 L128.6,13.7 C130.1,13.7 130.6,13.9 130.8,14.2 C131.3,14.7 131.8,15.4 131.8,18.4 C131.8,21.4 131.3,22.4 130.8,22.9 C130.6,23.1 130.1,23.4 128.6,23.4 L117.4,23.2 Z M149,49.7 L99.2,49.7 L99.2,-3.55271368e-15 L148.9,-3.55271368e-15 L148.9,49.7 L149,49.7 Z M86.2,36.4 L86.2,42.1 L62.5,42.1 L62.5,36.4 L71,36.4 L71,13.5 L62.5,13.5 L62.5,7.8 L86.2,7.8 L86.2,13.5 L77.7,13.5 L77.7,36.4 L86.2,36.4 Z M46.3,7.7 L39.8,7.7 L35.1,34.8 L29.6,9.6 C29.4,7.9 28.6,7.6 27.1,7.6 L23.6,7.6 C22.1,7.6 21.4,8.1 21.1,9.6 L15.6,34.8 L10.9,7.7 L3.9,7.7 L10.7,40.3 C10.9,41.8 11.4,42 13.2,42 L17.9,42 C19.4,42 19.9,41.8 20.4,40.3 L25.6,16.6 L30.8,40.3 C31,41.8 31.5,42 33.3,42 L37.8,42 C39.3,42 40,41.8 40.3,40.3 L46.3,7.7 Z M49.8,49.7 L-1.42108547e-14,49.7 L-1.42108547e-14,-3.55271368e-15 L49.7,-3.55271368e-15 L49.7,49.7 L49.8,49.7 Z" id="Shape"></path>
        </g>
    </g>
</svg>