<svg width="230px" height="31px" viewBox="0 0 230 31" xmlns="http://www.w3.org/2000/svg">
    <g stroke="none" stroke-width="1" fill="none" fill-rule="evenodd">
        <g transform="translate(-38.000000, -32.000000)" fill="#A6AEB8">
            <g transform="translate(38.000000, 32.000000)">
                 <g fill-rule="nonzero">
                <path d="M44.114,22 L44.114,16.672 L45.86,16.672 C48.128,16.672 50.072,15.628 50.072,13.126 C50.072,11.938 49.64,11.128 48.866,10.462 C48.11,9.814 47.066,9.58 45.86,9.58 L42.368,9.58 L42.368,22 L44.114,22 Z M45.716,15.25 L44.114,15.25 L44.114,11.002 L45.716,11.002 C47.102,11.002 48.272,11.578 48.272,13.126 C48.272,14.692 47.102,15.25 45.716,15.25 Z M55.706,22.198 C58.244,22.198 60.224,20.416 60.224,17.752 C60.224,15.106 58.244,13.288 55.706,13.288 C53.15,13.288 51.17,15.106 51.17,17.752 C51.17,20.416 53.15,22.198 55.706,22.198 Z M55.706,20.722 C53.978,20.722 52.916,19.39 52.916,17.698 C52.916,16.024 53.978,14.692 55.706,14.692 C57.416,14.692 58.478,16.024 58.478,17.698 C58.478,19.39 57.416,20.722 55.706,20.722 Z M65.426,22 L67.694,15.61 L69.944,22 L71.528,22 L74.354,13.45 L72.608,13.45 L70.628,19.912 L68.378,13.432 L66.992,13.432 L64.742,19.912 L62.762,13.45 L61.016,13.45 L63.842,22 L65.426,22 Z M79.43,22.198 C81.986,22.198 83.084,20.938 83.192,20.848 L82.472,19.858 C82.274,19.984 81.248,20.848 79.646,20.848 C78.062,20.848 76.982,19.822 76.892,18.13 L83.48,18.13 C83.48,18.13 83.534,17.698 83.534,17.374 C83.534,14.98 81.86,13.288 79.484,13.288 C77.108,13.288 75.146,15.016 75.146,17.716 C75.146,20.434 76.892,22.198 79.43,22.198 Z M81.896,16.978 L76.91,16.978 C76.964,15.952 77.72,14.53 79.43,14.53 C81.158,14.53 81.878,16.024 81.896,16.978 Z M86.972,22 L86.972,17.734 C86.972,16.492 87.35,14.854 88.898,14.854 C89.366,14.854 89.672,14.962 89.834,15.034 L89.906,15.034 L90.014,13.432 C90.014,13.432 89.69,13.288 89.114,13.288 C88.196,13.288 87.422,13.792 87.008,14.764 L86.954,14.764 L86.972,13.45 L85.244,13.45 L85.244,22 L86.972,22 Z M94.982,22.198 C97.538,22.198 98.636,20.938 98.744,20.848 L98.024,19.858 C97.826,19.984 96.8,20.848 95.198,20.848 C93.614,20.848 92.534,19.822 92.444,18.13 L99.032,18.13 C99.032,18.13 99.086,17.698 99.086,17.374 C99.086,14.98 97.412,13.288 95.036,13.288 C92.66,13.288 90.698,15.016 90.698,17.716 C90.698,20.434 92.444,22.198 94.982,22.198 Z M97.448,16.978 L92.462,16.978 C92.516,15.952 93.272,14.53 94.982,14.53 C96.71,14.53 97.43,16.024 97.448,16.978 Z M104.378,22.198 C105.62,22.198 106.682,21.676 107.384,20.632 L107.42,20.632 L107.42,22 L109.076,22 L109.076,9.58 L107.366,9.58 L107.366,14.782 L107.33,14.782 C106.736,13.9 105.728,13.288 104.342,13.288 C101.84,13.288 100.22,15.196 100.22,17.716 C100.22,20.254 101.84,22.198 104.378,22.198 Z M104.702,20.722 C102.992,20.722 101.984,19.408 101.984,17.698 C101.984,15.988 102.992,14.692 104.702,14.692 C106.412,14.692 107.42,15.988 107.42,17.698 C107.42,19.408 106.412,20.722 104.702,20.722 Z M119.912,22.198 C122.45,22.198 124.07,20.254 124.07,17.716 C124.07,15.196 122.45,13.288 119.948,13.288 C118.598,13.288 117.572,13.846 116.96,14.782 L116.924,14.782 L116.924,9.58 L115.214,9.58 L115.214,22 L116.87,22 L116.87,20.65 L116.906,20.65 C117.608,21.694 118.67,22.198 119.912,22.198 Z M119.588,20.722 C117.878,20.722 116.852,19.408 116.852,17.698 C116.852,15.988 117.878,14.692 119.588,14.692 C121.298,14.692 122.306,15.988 122.306,17.698 C122.306,19.408 121.298,20.722 119.588,20.722 Z M126.968,25.474 C127.922,25.474 128.624,24.97 129.218,23.494 L133.34,13.45 L131.558,13.432 L129.038,20.092 L126.446,13.45 L124.646,13.432 L128.12,21.82 L127.706,22.954 C127.472,23.584 127.292,23.962 126.59,23.962 C126.158,23.962 125.69,23.764 125.69,23.764 L125.348,25.168 C125.348,25.168 126.014,25.474 126.968,25.474 Z M142.286,22 C143.654,22 144.644,21.802 145.418,21.19 C146.192,20.578 146.75,19.768 146.75,18.472 C146.75,16.834 145.67,15.79 143.996,15.448 L143.996,15.412 C145.04,15.088 145.886,14.008 145.886,12.694 C145.886,11.398 145.31,10.66 144.554,10.174 C143.78,9.67 142.772,9.58 141.602,9.58 L138.254,9.58 L138.254,22 L142.286,22 Z M141.458,14.908 L140,14.908 L140,10.966 L141.602,10.966 C142.934,10.966 144.14,11.308 144.14,12.892 C144.14,13.792 143.726,14.224 143.312,14.53 C142.898,14.836 142.322,14.908 141.458,14.908 Z M142.087446,20.5772697 L140,20.578 L140,16.24 L141.872,16.24 C142.664,16.24 143.438,16.276 144.05,16.69 C144.662,17.104 144.95,17.608 144.95,18.4 C144.95,19.192 144.662,19.732 144.05,20.146 C143.493636,20.5223636 142.803388,20.5714545 142.087446,20.5772697 L142.087446,20.5772697 Z M150.872,22.198 C152.438,22.198 153.248,21.28 153.59,20.92 L153.608,22 L155.282,22 L155.282,17.032 C155.282,14.548 154.04,13.288 151.538,13.288 C150.116,13.288 148.964,13.792 148.334,14.152 L148.856,15.304 C149.144,15.124 150.188,14.566 151.43,14.566 C152.672,14.566 153.554,15.214 153.554,16.51 L153.554,16.852 L151.268,16.942 C149.288,17.032 147.92,17.878 147.92,19.552 C147.92,21.208 149.288,22.198 150.872,22.198 Z M151.394,20.974 C150.26,20.974 149.63,20.308 149.63,19.498 C149.63,18.688 150.188,18.094 151.574,18.022 L153.572,17.896 L153.572,19.732 C153.248,20.218 152.51,20.974 151.394,20.974 Z M164.138,22 L164.138,20.578 L158.9,20.578 L163.886,14.512 L163.886,13.468 L156.938,13.468 L156.938,14.854 L161.69,14.854 L156.686,20.938 L156.686,22 L164.138,22 Z M167.936,22.198 C169.502,22.198 170.312,21.28 170.654,20.92 L170.672,22 L172.346,22 L172.346,17.032 C172.346,14.548 171.104,13.288 168.602,13.288 C167.18,13.288 166.028,13.792 165.398,14.152 L165.92,15.304 C166.208,15.124 167.252,14.566 168.494,14.566 C169.736,14.566 170.618,15.214 170.618,16.51 L170.618,16.852 L168.332,16.942 C166.352,17.032 164.984,17.878 164.984,19.552 C164.984,21.208 166.352,22.198 167.936,22.198 Z M168.458,20.974 C167.324,20.974 166.694,20.308 166.694,19.498 C166.694,18.688 167.252,18.094 168.638,18.022 L170.636,17.896 L170.636,19.732 C170.312,20.218 169.574,20.974 168.458,20.974 Z M176.792,22.198 C178.358,22.198 179.168,21.28 179.51,20.92 L179.528,22 L181.202,22 L181.202,17.032 C181.202,14.548 179.96,13.288 177.458,13.288 C176.036,13.288 174.884,13.792 174.254,14.152 L174.776,15.304 C175.064,15.124 176.108,14.566 177.35,14.566 C178.592,14.566 179.474,15.214 179.474,16.51 L179.474,16.852 L177.188,16.942 C175.208,17.032 173.84,17.878 173.84,19.552 C173.84,21.208 175.208,22.198 176.792,22.198 Z M177.314,20.974 C176.18,20.974 175.55,20.308 175.55,19.498 C175.55,18.688 176.108,18.094 177.494,18.022 L179.492,17.896 L179.492,19.732 C179.168,20.218 178.43,20.974 177.314,20.974 Z M185.144,22 L185.144,17.734 C185.144,16.492 185.522,14.854 187.07,14.854 C187.538,14.854 187.844,14.962 188.006,15.034 L188.078,15.034 L188.186,13.432 C188.186,13.432 187.862,13.288 187.286,13.288 C186.368,13.288 185.594,13.792 185.18,14.764 L185.126,14.764 L185.144,13.45 L183.416,13.45 L183.416,22 L185.144,22 Z M193.352,22 L196.916,13.45 L195.134,13.45 L192.614,19.894 L190.076,13.45 L188.276,13.45 L191.84,22 L193.352,22 Z M202.082,22.198 C204.62,22.198 206.6,20.416 206.6,17.752 C206.6,15.106 204.62,13.288 202.082,13.288 C199.526,13.288 197.546,15.106 197.546,17.752 C197.546,20.416 199.526,22.198 202.082,22.198 Z M202.082,20.722 C200.354,20.722 199.292,19.39 199.292,17.698 C199.292,16.024 200.354,14.692 202.082,14.692 C203.792,14.692 204.854,16.024 204.854,17.698 C204.854,19.39 203.792,20.722 202.082,20.722 Z M209.336,11.704 C209.984,11.704 210.452,11.254 210.452,10.642 C210.452,10.03 209.984,9.58 209.336,9.58 C208.67,9.58 208.202,10.03 208.202,10.642 C208.202,11.254 208.67,11.704 209.336,11.704 Z M210.2,22 L210.2,13.45 L208.472,13.45 L208.472,22 L210.2,22 Z M216.392,22.198 C218.678,22.198 219.56,21.154 219.812,20.902 L219.2,19.642 C219.2,19.642 218.264,20.722 216.59,20.722 C214.934,20.722 213.818,19.48 213.818,17.68 C213.818,15.88 215.078,14.728 216.59,14.728 C218.102,14.728 218.858,15.484 219.146,15.772 L219.758,14.512 C219.668,14.404 218.732,13.288 216.446,13.288 C214.178,13.288 212.072,14.98 212.072,17.734 C212.072,20.47 214.088,22.198 216.392,22.198 Z M224.906,22.198 C227.462,22.198 228.56,20.938 228.668,20.848 L227.948,19.858 C227.75,19.984 226.724,20.848 225.122,20.848 C223.538,20.848 222.458,19.822 222.368,18.13 L228.956,18.13 C228.956,18.13 229.01,17.698 229.01,17.374 C229.01,14.98 227.336,13.288 224.96,13.288 C222.584,13.288 220.622,15.016 220.622,17.716 C220.622,20.434 222.368,22.198 224.906,22.198 Z M227.372,16.978 L222.386,16.978 C222.44,15.952 223.196,14.53 224.906,14.53 C226.634,14.53 227.354,16.024 227.372,16.978 Z" id="PoweredbyBazaarvoice"></path>
            </g>
            <g>
                <path d="M31,14.5479384 C30.5054229,6.37538581 23.7128124,0 15.5,0 C7.28718761,0 0.494577053,6.37538581 0,14.5479384 L0,30 L15.5281818,30 C24.0711548,29.9691006 30.9845516,23.0645319 31,14.5479384 M22.1790909,12.1598925 C22.9139921,12.0705549 23.6347776,12.4112138 24.0305734,13.0349434 C24.4263691,13.658673 24.4263691,14.4538909 24.0305734,15.0776205 C23.6347776,15.7013501 22.9139921,16.0420089 22.1790909,15.9526713 C21.1270474,15.9375785 20.2778669,15.0910244 20.2627273,14.0422346 C20.2626709,13.5381004 20.4654677,13.0550119 20.8256892,12.7011855 C21.1859108,12.347359 21.673449,12.1523681 22.1790909,12.1598925 M22.1790909,17.2731202 C23.2374693,17.2731202 24.0954545,18.1284518 24.0954545,19.1835569 C24.0954545,20.238662 23.2374693,21.0939936 22.1790909,21.0939936 C21.1207125,21.0939936 20.2627273,20.238662 20.2627273,19.1835569 C20.2627273,18.1284518 21.1207125,17.2731202 22.1790909,17.2731202 M7.41181818,16.5988484 L7.41181818,16.5988484 L7.41181818,8.17045118 L10.7936364,8.17045118 L10.7936364,16.5988484 C10.7936364,17.9022135 11.8535005,18.9587996 13.1609091,18.9587996 C14.4683177,18.9587996 15.5281818,17.9022135 15.5281818,16.5988484 C15.5281818,15.2954833 14.4683177,14.2388972 13.1609091,14.2388972 L12.1463636,14.2388972 L12.1463636,10.8675383 L13.1609091,10.8675383 C16.2737868,10.8675383 18.7972727,13.3832196 18.7972727,16.4864698 C18.7972727,19.5897199 16.2737868,22.1054013 13.1609091,22.1054013 C10.0480314,22.1054013 7.52454545,19.5897199 7.52454545,16.4864698" id="Fill-16"></path>
            </g>
            </g>
        </g>
    </g>
</svg>