<?xml version="1.0" encoding="UTF-8"?>
<svg width="188px" height="82px" viewBox="0 0 188 82" version="1.1" xmlns="http://www.w3.org/2000/svg" xmlns:xlink="http://www.w3.org/1999/xlink">
    <title>Wow-Press-logo_WOW</title>
    <g id="Page-1" stroke="none" stroke-width="1" fill="none" fill-rule="evenodd">
        <g id="Wow-Press-logo_WOW" fill-rule="nonzero">
            <path d="M135.86,61.79 L146.1,61.79 L154.59,37.36 L163.13,61.79 L173.38,61.79 L187.55,19.06 L175.38,19.06 L167.98,43.61 L159.8,18.96 L149.68,18.96 L141.5,43.63 L134.1,19.08 L121.68,19.08 L135.86,61.79 Z M14.18,61.79 L24.38,61.79 L32.87,37.36 L41.41,61.79 L51.65,61.79 L65.87,19.06 L53.69,19.06 L46.3,43.61 L38.12,18.96 L28,18.96 L19.82,43.63 L12.43,19.06 L0,19.06 L14.18,61.79 Z" id="Shape" fill="#4D4C4C"></path>
            <polygon id="Path" fill="#717070" points="104.26 81.24 93.91 76.86 83.57 81.24 83.57 62.97 104.26 62.97"></polygon>
            <polygon id="Path" fill="#717070" points="83.57 0 93.91 3.98 104.26 0 104.26 20.38 83.57 20.38"></polygon>
            <path d="M111.810003,40.62 C111.814045,47.8607828 107.455416,54.3908408 100.766965,57.1645718 C94.078515,59.9383028 86.3777662,58.4093241 81.2563284,53.2907474 C76.1348906,48.1721707 74.6016089,40.4722776 77.3716018,33.7822783 C80.1415948,27.0922789 86.669216,22.7299972 93.91,22.7299972 C98.6564554,22.7273469 103.209416,24.6110094 106.566605,27.9663228 C109.923794,31.3216363 111.810003,35.8735439 111.810003,40.62 M121.280017,40.62 C121.292137,29.5471464 114.631351,19.5578477 104.40485,15.3120377 C94.1783481,11.0662277 82.4011059,13.4004779 74.5671192,21.2258779 C66.7331324,29.0512779 64.3859676,40.825953 68.6205597,51.0571047 C72.8551519,61.2882563 82.8371398,67.96 93.91,67.96 C109.014326,67.96 121.263444,55.7243165 121.280017,40.62" id="Shape" fill="#4D4C4C"></path>
        </g>
    </g>
</svg>