<?xml version="1.0" encoding="UTF-8"?>
<svg width="168px" height="138px" viewBox="0 0 168 138" version="1.1" xmlns="http://www.w3.org/2000/svg" xmlns:xlink="http://www.w3.org/1999/xlink">
    <title>frequent-steepers-en</title>
    <g id="Page-1" stroke="none" stroke-width="1" fill="none" fill-rule="evenodd">
        <g id="frequent-steepers-en">
            <path d="M124.429,28.284189 L122.564,28.548489 C118.967,24.847689 114.838,21.675689 110.441,19.164389 C114.838,21.807789 118.967,24.979889 122.564,28.548489 L124.429,28.284189 Z" id="Path" fill="#00B0AE"></path>
            <path d="M35.0404,35.024889 C33.4417,37.139589 32.1095,39.386489 30.7773,41.765589 C32.1095,39.518689 33.4417,37.271789 35.0404,35.024889" id="Path" fill="#00B0AE"></path>
            <path d="M28.9141,42.029489 L30.7791,41.765089 L28.9141,42.029489 Z" id="Path" fill="#00B0AE"></path>
            <path d="M73.1367,10.441489 C75.9343,10.044989 78.8652,9.780589 81.6628,9.780589 C78.8652,9.912789 75.9343,10.044989 73.1367,10.441489" id="Path" fill="#00B0AE"></path>
            <path d="M56.3477,17.182889 C61.6764,14.671589 67.2717,12.821289 73.2666,12.028189 C74.5988,11.896089 75.931,11.631689 77.2632,11.631689 C75.931,11.763889 74.5988,11.896089 73.2666,12.028189 C67.4049,12.821289 61.6764,14.539489 56.3477,17.182889" id="Path" fill="#00B0AE"></path>
            <path d="M131.757,95.955589 L133.622,95.691289 C127.494,107.189789 117.503,116.573789 105.113,121.860789 C117.503,116.441789 127.361,107.189789 133.622,95.691289 L131.757,95.955589 C128.96,100.977789 125.363,105.603789 121.233,109.568789 C125.363,105.471789 128.96,100.977789 131.757,95.955589" id="Path" fill="#00B0AE"></path>
            <path d="M57.6836,121.728789 C65.0107,125.032789 73.1371,126.882789 81.5299,126.882789 C83.7947,126.882789 86.0594,126.750789 88.4574,126.486789 C86.1926,126.750789 83.9279,126.882789 81.5299,126.882789 C73.1371,126.750789 65.0107,124.900789 57.6836,121.728789" id="Path" fill="#00B0AE"></path>
            <path d="M46.493,113.269789 C44.7612,111.947789 43.0293,110.493789 41.4307,108.907789 L39.832,109.172789 L41.4307,108.907789 C43.1625,110.493789 44.7612,111.947789 46.493,113.269789" id="Path" fill="#00B0AE"></path>
            <path d="M92.0532,124.371789 C91.3871,124.503789 90.5877,124.635789 89.9216,124.767789 C89.522,124.767789 89.1223,124.899789 88.7227,124.899789 C89.1223,124.899789 89.522,124.767789 89.9216,124.767789 C90.5877,124.503789 91.2538,124.503789 92.0532,124.371789" id="Path" fill="#00B0AE"></path>
            <path d="M27.5691,30.795689 C25.1712,34.099889 23.1729,37.668489 21.5742,41.237089 C23.1729,37.668489 25.1712,34.099889 27.5691,30.795689" id="Path" fill="#00B0AE"></path>
            <path d="M21.4494,41.237389 C21.0497,40.840889 20.5168,40.444389 20.1172,40.047889 C20.6501,40.444389 21.0497,40.840889 21.4494,41.237389" id="Path" fill="#00B0AE"></path>
            <path d="M81.6562,2.775339 C84.1874,2.775339 86.5854,2.907509 89.1166,3.171849 C86.7186,3.039679 84.1874,2.775339 81.6562,2.775339" id="Path" fill="#00B0AE"></path>
            <path d="M81.5329,133.756789 C61.6831,133.756789 43.432,124.768789 31.1758,110.362789 C43.432,124.768789 61.6831,133.756789 81.5329,133.756789" id="Path" fill="#00B0AE"></path>
            <path d="M143.613,98.334489 C144.279,96.880689 144.945,95.426789 145.612,93.972889 C145.079,95.426789 144.413,96.880689 143.613,98.334489" id="Path" fill="#00B0AE"></path>
            <path d="M27.7109,110.890789 C30.6418,114.459789 33.839,117.763789 37.436,120.803789 C33.839,117.895789 30.6418,114.591789 27.7109,110.890789" id="Path" fill="#00B0AE"></path>
            <path d="M143.875,94.105689 L142.143,94.370089 C140.811,97.277789 139.345,100.185789 137.613,102.960789 C139.345,100.185789 140.811,97.277789 142.143,94.370089 L143.875,94.105689 Z" id="Path" fill="#00B0AE"></path>
            <path d="M88.4587,136.399789 C86.1939,136.663789 83.796,136.795789 81.5312,136.795789 C83.796,136.795789 86.1939,136.663789 88.4587,136.399789" id="Path" fill="#00B0AE"></path>
            <path d="M28.1088,97.145589 C27.0431,95.427389 25.3112,94.502189 23.1797,94.105689 C25.3112,94.502189 27.0431,95.427389 28.1088,97.145589" id="Path" fill="#00B0AE"></path>
            <path d="M26.1178,103.357789 C26.7839,102.564789 27.0503,101.639789 27.0503,100.582789 C27.0503,101.639789 26.7839,102.564789 26.1178,103.357789" id="Path" fill="#00B0AE"></path>
            <path d="M12.2598,89.611589 L12.2598,89.875889 C12.393,89.743789 12.2598,89.611589 12.2598,89.611589 C11.9934,87.628989 12.9259,85.910789 14.6578,84.853489 C14.791,84.721289 15.0574,84.589089 15.1906,84.589089 C15.0574,84.721289 14.791,84.721289 14.6578,84.853489 C12.9259,85.910789 11.9934,87.496889 12.2598,89.611589" id="Path" fill="#00B0AE"></path>
            <path d="M17.0521,82.077189 L17.3185,82.077189 C17.3185,82.077189 17.1853,82.077189 17.0521,82.077189 C15.9863,82.209289 15.0538,82.605789 14.1213,83.002289 C13.5884,83.266689 13.1887,83.530989 12.7891,83.927489 C13.1887,83.530989 13.7216,83.266689 14.1213,83.002289 C15.0538,82.605789 16.1196,82.341489 17.0521,82.077189" id="Path" fill="#00B0AE"></path>
            <path d="M25.3088,86.571189 C24.1098,84.720889 21.4454,83.134789 17.8485,83.663489 C17.7153,83.663489 17.7153,83.663489 17.582,83.663489 L17.8485,83.663489 C21.4454,83.134789 23.9766,84.720889 25.3088,86.571189 C25.3088,86.571189 25.442,86.571189 25.7084,86.439089 C25.442,86.571189 25.3088,86.571189 25.3088,86.571189" id="Path" fill="#00B0AE"></path>
            <path d="M22.1094,95.824089 C23.8412,96.088389 25.3066,96.617089 26.106,97.674489 C25.3066,96.617089 23.8412,96.220589 22.1094,95.824089" id="Path" fill="#00B0AE"></path>
            <path d="M25.9785,103.488789 C25.4456,104.149789 24.5131,104.678789 23.5806,105.206789 C23.3141,105.339789 23.0477,105.339789 22.7812,105.471789 C23.0477,105.339789 23.3141,105.339789 23.5806,105.206789 C24.6463,104.810789 25.4456,104.281789 25.9785,103.488789" id="Path" fill="#00B0AE"></path>
            <path d="M21.8484,82.209389 C21.0491,82.077189 20.1165,81.945089 19.0508,81.945089 C20.1165,81.945089 21.0491,81.945089 21.8484,82.209389" id="Path" fill="#00B0AE"></path>
            <path d="M18.2519,95.427189 C16.1204,95.162889 13.9889,94.766389 12.5234,93.708989 C13.9889,94.766389 16.1204,95.162889 18.2519,95.427189 C18.5183,95.427189 18.7848,95.427189 19.0512,95.559389 C19.8505,95.691489 20.7831,95.691489 21.5824,95.823689 C20.7831,95.691489 19.9837,95.559389 19.0512,95.559389 C18.7848,95.427189 18.5183,95.427189 18.2519,95.427189" id="Path" fill="#00B0AE"></path>
            <path d="M21.4521,107.454789 C18.2548,107.850789 15.8569,107.322789 14.125,106.396789 C15.8569,107.322789 18.388,107.982789 21.4521,107.454789 C22.5178,107.322789 23.5836,107.057789 24.5161,106.661789 C25.3155,106.396789 25.9816,106.000789 26.5144,105.471789 C25.9816,105.868789 25.3155,106.264789 24.5161,106.661789 C23.5836,107.057789 22.6511,107.322789 21.4521,107.454789" id="Path" fill="#00B0AE"></path>
            <path d="M19.5773,105.999789 C16.7797,105.999789 14.7814,104.942789 13.4492,103.488789 C14.7814,104.810789 16.7797,105.999789 19.5773,105.999789" id="Path" fill="#00B0AE"></path>
            <path d="M11.8643,103.488789 L11.8643,103.752789 C11.8643,103.885789 11.8643,103.885789 11.9975,104.017789 C11.9975,103.885789 11.9975,103.752789 11.8643,103.752789 C11.7311,103.752789 11.7311,103.620789 11.8643,103.488789" id="Path" fill="#00B0AE"></path>
            <path d="M28.9083,81.812989 C29.0415,82.341689 29.308,82.473789 29.8408,82.473789 L38.1005,81.284289 L29.8408,82.473789 C29.308,82.473789 28.9083,82.209489 28.9083,81.812989 L28.9083,81.680789 C28.7751,81.152089 29.0415,80.887789 29.7076,80.755589 C29.1747,80.887789 28.9083,81.152089 28.9083,81.680789 L28.9083,81.812989 Z" id="Path" fill="#00B0AE"></path>
            <polygon id="Path" fill="#00B0AE" points="43.0324 101.638789 40.1016 80.887689 48.228 79.698089 40.1016 80.887689"></polygon>
            <path d="M42.6309,104.150789 L42.3645,104.150789 C42.2313,104.150789 42.0981,104.150789 41.9648,104.150789 L42.3645,104.150789 L42.6309,104.150789 C43.0306,104.150789 43.1638,103.886789 43.297,103.754789 C43.1638,104.018789 42.8974,104.150789 42.6309,104.150789" id="Path" fill="#00B0AE"></path>
            <path d="M38.1016,81.285189 L41.2988,103.489789 C41.2988,103.621789 41.2988,103.753789 41.4321,103.753789 C41.4321,103.621789 41.4321,103.621789 41.2988,103.489789 L38.1016,81.285189 Z" id="Path" fill="#00B0AE"></path>
            <polygon id="Path" fill="#00B0AE" points="58.0826 100.053789 56.6172 89.876389 62.7453 89.083389 56.6172 89.876389"></polygon>
            <polygon id="Path" fill="#00B0AE" points="67.5416 86.703689 67.4084 86.703689 56.4844 88.289789 67.4084 86.703689"></polygon>
            <path d="M69.9376,75.600989 L69.9376,75.733189 L69.9376,75.600989 C69.8044,75.072289 69.5379,74.940089 68.8718,74.940089 L66.0742,75.336589 L68.8718,74.940089 C69.4047,74.940089 69.8044,75.204489 69.9376,75.600989" id="Path" fill="#00B0AE"></path>
            <path d="M57.5509,101.902789 C56.8848,102.034789 56.352,101.506789 56.2188,100.977789 C56.352,101.506789 56.8848,102.034789 57.5509,101.902789 L72.8712,99.655789 L73.1377,99.655789 C73.1377,99.655789 73.0044,99.655789 72.8712,99.655789 L57.5509,101.902789 Z" id="Path" fill="#00B0AE"></path>
            <path d="M53.4167,77.450789 C53.1503,77.582989 53.0171,77.979489 53.0171,78.375989 C53.0171,77.847289 53.1503,77.582989 53.4167,77.450789" id="Path" fill="#00B0AE"></path>
            <path d="M94.458,94.765589 C94.7245,94.765589 94.8577,94.897789 95.1241,95.029989 C94.9909,94.897789 94.7245,94.765589 94.458,94.765589" id="Path" fill="#00B0AE"></path>
            <path d="M94.4531,96.483489 L79.1328,98.730389 L94.4531,96.483489 C94.8527,96.483489 95.1192,96.219189 95.2524,95.954789 C95.2524,96.351389 94.986,96.483489 94.4531,96.483489" id="Path" fill="#00B0AE"></path>
            <path d="M78.3289,98.598589 C78.5954,98.730789 78.8618,98.862989 79.1283,98.862989 C78.8618,98.730789 78.5954,98.730789 78.3289,98.598589" id="Path" fill="#00B0AE"></path>
            <path d="M89.7907,83.794989 C89.9239,83.927189 89.9239,84.059289 90.0571,84.191489 C89.9239,83.927189 89.9239,83.794989 89.7907,83.794989" id="Path" fill="#00B0AE"></path>
            <path d="M90.5925,71.900389 L75.6719,74.015089 L90.5925,71.900389 Z" id="Path" fill="#00B0AE"></path>
            <path d="M77.9263,97.805589 C77.9263,97.937789 78.0596,98.069989 78.0596,98.202189 C78.0596,98.069989 77.9263,97.937789 77.9263,97.805589 L74.5958,75.468889 C74.4626,74.808089 74.8623,74.279389 75.5284,74.147189 C74.8623,74.279389 74.4626,74.808089 74.5958,75.468889 L77.9263,97.805589 Z" id="Path" fill="#00B0AE"></path>
            <path d="M94.4557,94.765589 C94.3225,94.765589 94.3225,94.765589 94.1893,94.765589 L92.3242,95.029989 L94.1893,94.765589 L94.4557,94.765589 Z" id="Path" fill="#00B0AE"></path>
            <path d="M76.5977,75.601289 L83.6583,74.543889 L76.5977,75.601289 Z" id="Path" fill="#00B0AE"></path>
            <path d="M89.2543,85.249789 L80.1953,86.571489 L89.2543,85.249789 C89.7871,85.117589 90.1868,84.853189 90.0536,84.324589 L90.0536,84.192389 L90.0536,84.324589 C90.0536,84.853189 89.7871,85.117589 89.2543,85.249789" id="Path" fill="#00B0AE"></path>
            <path d="M113.635,74.675489 C112.436,70.974689 108.972,69.256489 103.644,69.917289 L101.379,70.181689 L103.644,69.917289 C108.972,69.256489 112.436,70.974689 113.635,74.675489" id="Path" fill="#00B0AE"></path>
            <path d="M96.4554,71.635889 C96.4554,71.767989 96.3222,72.032389 96.4554,72.164589 L98.054,82.738189 L96.4554,72.164589 C96.3222,72.032389 96.3222,71.900189 96.4554,71.635889" id="Path" fill="#00B0AE"></path>
            <path d="M114.035,77.584489 C114.035,78.906189 113.768,80.095689 113.102,81.020889 C113.768,79.963489 114.035,78.773989 114.035,77.584489" id="Path" fill="#00B0AE"></path>
            <path d="M111.774,75.469189 C110.841,72.429189 108.31,71.107489 104.047,71.768389 C108.177,71.107489 110.841,72.429189 111.774,75.469189" id="Path" fill="#00B0AE"></path>
            <path d="M98.3164,72.561989 L103.912,71.768989 L98.3164,72.561989 Z" id="Path" fill="#00B0AE"></path>
            <polygon id="Path" fill="#00B0AE" points="99.5078 80.227089 100.041 84.059989 105.636 83.266989 100.041 84.059989"></polygon>
            <path d="M100.577,95.823189 C100.177,95.823189 99.9106,95.691089 99.7773,95.426689 C99.9106,95.691089 100.177,95.823189 100.577,95.823189 L100.843,95.823189 C100.976,95.823189 101.11,95.823189 101.243,95.691089 C101.11,95.691089 100.976,95.823189 100.843,95.823189 L100.577,95.823189 Z" id="Path" fill="#00B0AE"></path>
            <path d="M117.367,68.728589 L117.367,69.257289 L120.698,91.726189 L117.367,69.257289 C117.367,68.992989 117.367,68.860789 117.367,68.728589" id="Path" fill="#00B0AE"></path>
            <path d="M120.957,80.623889 L131.881,79.037889 L120.957,80.623889 Z" id="Path" fill="#00B0AE"></path>
            <path d="M130.294,89.611089 L122.434,90.800689 L130.294,89.611089 Z" id="Path" fill="#00B0AE"></path>
            <polygon id="Path" fill="#00B0AE" points="120.433 76.790389 119.367 69.521089 120.833 69.256689 119.367 69.521089"></polygon>
            <path d="M131.887,79.038089 C132.419,78.905889 132.819,78.641489 132.686,78.112889 L132.686,77.980689 L132.686,78.112889 C132.819,78.641489 132.553,79.038089 131.887,79.038089" id="Path" fill="#00B0AE"></path>
            <path d="M138.023,89.214189 C137.89,88.685489 137.624,88.553289 136.957,88.553289 C137.49,88.553289 137.89,88.817689 138.023,89.214189" id="Path" fill="#00B0AE"></path>
            <polygon id="Path" fill="#00B0AE" points="134.688 90.668489 136.02 90.536289 137.085 90.404189 136.02 90.536289"></polygon>
            <path d="M137.353,90.404189 C137.619,90.404189 137.885,90.271989 138.019,90.007589 C137.885,90.139789 137.619,90.271989 137.353,90.404189" id="Path" fill="#00B0AE"></path>
            <path d="M151.609,75.469889 C154.007,74.412489 155.073,72.429989 154.673,69.918689 C154.54,69.257889 154.407,68.597089 154.141,68.068389 C154.407,68.597089 154.54,69.257889 154.673,69.918689 C155.073,72.297789 154.141,74.280389 151.609,75.469889" id="Path" fill="#00B0AE"></path>
            <path d="M148.403,77.979489 L149.069,77.847289 L148.403,77.979489 Z" id="Path" fill="#00B0AE"></path>
            <polygon id="Path" fill="#00B0AE" points="139.086 66.085489 140.285 74.147789 141.351 81.549289 140.285 74.147789"></polygon>
            <path d="M142.411,88.950089 C142.544,89.478689 142.81,89.743089 143.343,89.610889 C142.81,89.610889 142.544,89.478689 142.411,88.950089" id="Path" fill="#00B0AE"></path>
            <polygon id="Path" fill="#00B0AE" points="147.878 76.394789 147.079 76.526889 145.48 76.659089 147.079 76.526889"></polygon>
            <path d="M149.738,79.037789 L149.205,78.641289 L149.738,79.037789 L159.064,86.439289 C159.197,86.571489 158.797,87.364489 157.998,87.496689 C157.598,87.496689 157.199,87.364489 156.666,86.967989 L149.339,81.152489 L146.674,79.037789 L145.875,78.376989 L146.674,79.037789 L149.339,81.152489 L156.666,86.967989 C157.199,87.364489 157.598,87.496689 157.998,87.496689 C158.797,87.364489 159.197,86.571489 159.064,86.439289 L149.738,79.037789 Z" id="Path" fill="#00B0AE"></path>
            <polygon id="Path" fill="#00B0AE" points="143.479 83.399389 142.812 78.773489 146.01 78.376989 142.812 78.773489"></polygon>
            <path d="M147.6,65.423889 C148.799,65.291689 149.732,65.291689 150.664,65.423889 C151.197,65.555989 151.73,65.688189 152.263,65.952489 C151.73,65.688189 151.197,65.555989 150.664,65.423889 C149.732,65.291689 148.666,65.291689 147.6,65.423889 C147.467,65.423889 147.334,65.423889 147.067,65.423889 L142.938,65.952489 L147.067,65.423889 L147.6,65.423889 Z" id="Path" fill="#00B0AE"></path>
            <path d="M151.465,77.320189 C153.596,76.659389 155.195,75.469789 155.994,73.883789 C155.195,75.469789 153.596,76.659389 151.465,77.320189" id="Path" fill="#00B0AE"></path>
            <path d="M147.342,63.705789 C147.075,63.705789 146.942,63.705789 146.676,63.705789 L144.145,64.102289 L146.676,63.705789 L147.342,63.705789 Z" id="Path" fill="#00B0AE"></path>
            <path d="M156.665,69.521789 C156.665,69.918289 156.799,70.314789 156.799,70.711289 C156.799,70.314789 156.799,69.918289 156.665,69.521789 C156.132,66.085389 154.001,64.102789 150.404,63.706289 C150.271,63.706289 150.004,63.706289 149.871,63.706289 L150.404,63.706289 C154.001,64.102789 156.266,66.085389 156.665,69.521789" id="Path" fill="#00B0AE"></path>
            <path d="M9.85547,56.833889 L14.1185,56.305189 L9.85547,56.833889 Z" id="Path" fill="#00B0AE"></path>
            <polygon id="Path" fill="#00B0AE" points="11.8559 70.579289 5.59456 71.504489 5.32812 69.786289 5.59456 71.504489"></polygon>
            <path d="M15.3231,51.282089 C13.458,51.546389 12.1258,50.885489 11.8594,49.299489 L11.8594,49.167289 L11.8594,49.299489 C11.9926,50.885489 13.458,51.546389 15.3231,51.282089 C16.5221,51.149889 17.3214,50.224689 17.5878,49.035189 C17.3214,50.224689 16.5221,51.149889 15.3231,51.282089" id="Path" fill="#00B0AE"></path>
            <path d="M13.1912,47.052689 C12.6583,47.184889 12.3918,47.449189 12.1254,47.845689 C12.3918,47.449189 12.6583,47.184889 13.1912,47.052689" id="Path" fill="#00B0AE"></path>
            <polygon id="Path" fill="#00B0AE" points="0 55.511889 0.26644 55.511889 0 55.511889 0.26644 57.230089 2.6644 57.626589 0.26644 57.230089"></polygon>
            <path d="M8.78947,48.638089 C8.78947,47.845089 9.05591,47.051989 9.85523,46.655489 C9.05591,47.051989 8.78947,47.712889 8.78947,48.638089" id="Path" fill="#00B0AE"></path>
            <path d="M17.5863,47.978289 L17.5863,48.506889 C17.5863,48.374789 17.5863,48.110389 17.5863,47.978289 C17.3198,46.127889 16.2541,45.070489 14.9219,44.409689 C16.2541,44.938389 17.3198,46.127889 17.5863,47.978289" id="Path" fill="#00B0AE"></path>
            <path d="M29.7075,54.321489 C29.1746,54.718089 29.0414,55.378889 29.0414,56.039789 L29.0414,56.304089 C29.0414,56.171889 29.0414,56.171889 29.0414,56.039789 C28.9082,55.511089 29.1746,54.718089 29.7075,54.321489" id="Path" fill="#00B0AE"></path>
            <polygon id="Path" fill="#00B0AE" points="20.6431 69.257089 19.8438 63.970289 20.6431 69.257089 26.9044 68.331989 26.3715 64.895489 26.9044 68.331989"></polygon>
            <path d="M34.7697,54.057589 C34.5033,53.132389 34.1036,52.471589 33.4375,51.942889 C33.9704,52.471589 34.5033,53.132389 34.7697,54.057589" id="Path" fill="#00B0AE"></path>
            <path d="M28.9141,53.793589 C29.3137,53.793589 30.113,53.793589 30.3795,54.190089 C30.113,53.661489 29.1805,53.661489 28.9141,53.793589" id="Path" fill="#00B0AE"></path>
            <path d="M26.2461,56.436389 C26.6458,55.246789 27.3119,54.189489 28.3776,53.792989 C27.3119,54.189489 26.6458,55.246789 26.2461,56.436389" id="Path" fill="#00B0AE"></path>
            <path d="M32.502,58.154789 C32.2356,58.154789 32.1024,58.154789 31.8359,58.154789 L32.502,58.154789 C34.2339,57.890489 35.1664,56.436589 34.9,54.850589 C35.0332,56.436589 34.2339,57.890489 32.502,58.154789" id="Path" fill="#00B0AE"></path>
            <polygon id="Path" fill="#00B0AE" points="14.6536 53.396289 14.92 54.982289 15.1864 55.114489 14.92 54.982289"></polygon>
            <path d="M30.5059,50.753289 C30.1062,50.753289 29.7065,50.753289 29.3069,50.753289 C28.5076,50.885489 27.8415,51.017689 27.3086,51.281989 C27.8415,51.017689 28.5076,50.885489 29.3069,50.753289 L30.5059,50.753289 Z" id="Path" fill="#00B0AE"></path>
            <path d="M25.1747,53.397389 C25.0415,53.661689 24.7751,54.058189 24.6418,54.322589 C24.9083,53.925989 25.0415,53.661689 25.1747,53.397389" id="Path" fill="#00B0AE"></path>
            <path d="M41.9648,58.551089 L47.5601,57.758089 L41.9648,58.551089 Z" id="Path" fill="#00B0AE"></path>
            <path d="M35.5703,58.815289 C35.97,61.723089 37.7018,63.837789 39.8333,65.027289 C37.7018,63.705589 35.97,61.723089 35.5703,58.815289" id="Path" fill="#00B0AE"></path>
            <path d="M47.4299,54.056989 C47.1635,52.470989 45.6981,51.149289 44.0995,51.413589 C43.3001,51.545789 42.634,51.810089 42.2344,52.206589 C42.634,51.810089 43.1669,51.545789 44.0995,51.413589 C45.6981,51.149289 47.1635,52.338789 47.4299,54.056989" id="Path" fill="#00B0AE"></path>
            <path d="M41.567,55.908289 C41.567,55.511689 41.567,54.983089 41.567,54.586589 C41.4338,54.983089 41.567,55.511689 41.567,55.908289 L46.7626,55.115189 L41.567,55.908289 Z" id="Path" fill="#00B0AE"></path>
            <path d="M43.4316,48.770589 C44.2309,48.638389 45.0302,48.638389 45.8295,48.638389 C45.1634,48.638389 44.2309,48.638389 43.4316,48.770589 C38.236,49.563589 34.7723,53.396589 35.5716,58.683389 C34.7723,53.396589 38.3692,49.563589 43.4316,48.770589" id="Path" fill="#00B0AE"></path>
            <path d="M46.3642,63.176789 C44.6323,62.912489 43.0337,61.855089 42.2344,59.476089 C43.0337,61.722989 44.6323,62.912489 46.3642,63.176789" id="Path" fill="#00B0AE"></path>
            <path d="M53.6831,59.608289 L52.7506,59.343989 L53.6831,59.608289 Z" id="Path" fill="#00B0AE"></path>
            <path d="M68.208,60.269689 L68.7409,63.838289 C68.7409,64.102589 68.8741,64.366889 68.8741,64.631289 C68.8741,64.366889 68.8741,64.102589 68.7409,63.838289 L68.208,60.269689 Z" id="Path" fill="#00B0AE"></path>
            <polygon id="Path" fill="#00B0AE" points="78.6004 66.481289 78.8668 67.802989 66.4774 69.653389 66.2109 68.199489 66.4774 69.653389 78.8668 67.802989"></polygon>
            <path d="M67.4167,54.321189 L67.2835,53.528189 C67.2835,53.131689 67.1503,52.735089 67.0171,52.338589 C67.1503,52.735089 67.2835,53.131689 67.2835,53.528189 L67.4167,54.321189 Z" id="Path" fill="#00B0AE"></path>
            <path d="M68.4794,47.052389 L68.6126,45.598489 L68.4794,47.052389 C68.4794,47.316689 68.213,47.581089 67.8133,47.713189 C68.213,47.581089 68.4794,47.316689 68.4794,47.052389" id="Path" fill="#00B0AE"></path>
            <path d="M75.2746,63.838089 C75.1414,63.573689 75.1414,63.177189 75.0081,62.780689 L72.3438,44.937789 L75.0081,62.780689 C75.0081,63.309389 75.1414,63.573689 75.2746,63.838089" id="Path" fill="#00B0AE"></path>
            <path d="M62.6161,48.506789 C63.9483,48.374689 65.0141,49.035489 65.6802,49.960689 C65.0141,49.035489 63.9483,48.374689 62.6161,48.506789 C60.0849,48.903389 60.2182,51.943289 60.4846,53.793589 C60.6178,54.586689 60.8843,55.776189 61.2839,56.833489 C60.8843,55.776189 60.6178,54.718789 60.4846,53.793589 C60.3514,51.943289 60.2182,48.903389 62.6161,48.506789" id="Path" fill="#00B0AE"></path>
            <path d="M54.0875,55.643089 C53.9543,54.585689 53.9543,53.528289 54.2207,52.603189 C53.9543,53.528289 53.9543,54.453489 54.0875,55.643089 C54.8868,60.797689 58.2173,64.234089 63.1465,63.573289 C63.4129,63.573289 63.5461,63.441089 63.8126,63.441089 C63.5461,63.441089 63.4129,63.573289 63.1465,63.573289 C58.2173,64.234089 54.8868,60.797689 54.0875,55.643089" id="Path" fill="#00B0AE"></path>
            <path d="M89.1297,48.903289 L88.1971,42.691289 L89.1297,48.903289 C89.2629,49.960589 89.3961,51.414489 89.1297,52.603989 C89.3961,51.414489 89.2629,49.960589 89.1297,48.903289" id="Path" fill="#00B0AE"></path>
            <path d="M90.0594,56.437589 C88.594,59.213189 87.1286,60.006189 84.331,60.402689 C84.0645,60.402689 83.6649,60.534889 83.3984,60.402689 L84.331,60.402689 C87.1286,60.006189 88.4608,59.213189 90.0594,56.437589 C90.0594,56.305389 90.1926,56.305389 90.1926,56.305389 C90.0594,56.305389 90.0594,56.305389 90.0594,56.437589" id="Path" fill="#00B0AE"></path>
            <path d="M97.9181,54.851089 C98.1846,54.851089 98.3178,54.718989 98.5842,54.586789 C98.3178,54.718989 98.1846,54.851089 97.9181,54.851089 C97.252,54.983289 96.8524,54.586789 96.5859,53.925989 C96.8524,54.586789 97.252,54.983289 97.9181,54.851089" id="Path" fill="#00B0AE"></path>
            <path d="M79.3945,58.683089 C80.3271,59.872589 81.7925,60.533489 83.2579,60.533489 C81.7925,60.401289 80.3271,59.872589 79.3945,58.683089" id="Path" fill="#00B0AE"></path>
            <path d="M98.0454,57.891389 C97.3793,58.287889 96.4468,58.684389 95.381,58.816589 C93.1163,59.080889 91.6509,58.287889 90.8516,56.966189 C91.7841,58.287889 93.2495,59.080889 95.381,58.816589 C96.4468,58.684389 97.2461,58.287889 98.0454,57.891389" id="Path" fill="#00B0AE"></path>
            <path d="M73.2695,44.804989 L77.9322,44.144189 L73.2695,44.804989 Z" id="Path" fill="#00B0AE"></path>
            <path d="M86.7271,55.378389 C87.6597,55.246189 88.1926,54.717489 88.5922,54.188889 C88.1926,54.849689 87.5265,55.246189 86.7271,55.378389 C86.1943,55.510589 85.6614,55.378389 85.2617,55.113989 C85.5282,55.378389 86.061,55.510589 86.7271,55.378389" id="Path" fill="#00B0AE"></path>
            <path d="M100.318,48.770589 L100.318,49.299289 C100.318,49.431489 100.318,49.563589 100.451,49.827989 C100.451,49.695789 100.451,49.563589 100.318,49.299289 C100.318,49.167089 100.318,48.902789 100.318,48.770589" id="Path" fill="#00B0AE"></path>
            <path d="M117.768,46.127189 L117.768,46.259389 C117.901,46.127189 117.901,46.127189 117.768,46.127189 C117.235,42.426389 114.97,40.179489 111.906,39.518689 C115.104,40.179489 117.235,42.426389 117.768,46.127189" id="Path" fill="#00B0AE"></path>
            <path d="M110.844,56.569089 C108.179,56.965589 105.248,56.304789 103.25,54.586589 C105.248,56.304789 108.179,56.965589 110.844,56.569089 C114.174,56.040389 117.505,54.057889 118.437,50.092789 C117.505,53.925689 114.174,56.040389 110.844,56.569089" id="Path" fill="#00B0AE"></path>
            <path d="M112.435,53.660689 C114.434,53.396389 116.565,51.942489 117.631,49.959989 L117.897,50.092089 L117.631,49.959989 C116.565,51.942489 114.434,53.396389 112.435,53.660689 C111.769,53.792889 111.236,53.792889 110.57,53.528589 C111.236,53.660689 111.769,53.792889 112.435,53.660689" id="Path" fill="#00B0AE"></path>
            <path d="M110.169,42.029689 C110.435,42.161789 110.569,42.161789 110.835,42.293989 C110.702,42.293989 110.435,42.161789 110.169,42.029689" id="Path" fill="#00B0AE"></path>
            <path d="M117.894,47.449089 L106.703,49.035089 C106.836,49.960289 107.236,50.621189 107.502,51.281989 C107.103,50.621189 106.836,49.960289 106.703,49.035089 L117.894,47.449089 Z" id="Path" fill="#00B0AE"></path>
            <path d="M115.639,38.725089 L115.772,39.385889 L115.639,38.725089 Z" id="Path" fill="#00B0AE"></path>
            <polygon id="Path" fill="#00B0AE" points="121.363 53.132189 121.63 54.586089 124.427 54.189589 121.63 54.586089"></polygon>
            <polygon id="Path" fill="#00B0AE" points="126.027 40.312089 125.095 37.272189 122.164 37.800889 125.095 37.272189"></polygon>
            <path d="M140.552,48.639089 C141.884,48.506889 142.417,47.052989 142.55,45.731289 C142.284,47.052989 141.884,48.506889 140.552,48.639089 C139.486,48.771189 138.954,47.449489 138.82,46.524389 C138.954,47.449489 139.353,48.771189 140.552,48.639089" id="Path" fill="#00B0AE"></path>
            <path d="M132.286,42.823189 C132.286,42.691089 132.152,42.426689 132.152,42.294589 C132.286,42.426689 132.286,42.558889 132.286,42.823189 C132.552,44.673589 132.552,46.523989 132.818,48.374389 C133.085,49.828289 133.618,51.017789 134.417,51.810789 C133.618,51.017789 133.085,49.828289 132.818,48.374389 C132.552,46.391789 132.552,44.541489 132.286,42.823189" id="Path" fill="#00B0AE"></path>
            <path d="M138.149,52.602989 C137.616,52.735089 137.216,52.735089 136.684,52.602989 L138.149,52.602989 C142.279,51.942089 143.478,48.505689 143.211,44.804889 C143.478,48.505689 142.279,51.942089 138.149,52.602989" id="Path" fill="#00B0AE"></path>
            <path d="M118.829,41.104289 C119.361,41.368589 119.628,41.897289 119.894,42.558089 C119.628,41.897289 119.361,41.368589 118.829,41.104289" id="Path" fill="#00B0AE"></path>
            <path d="M128.952,36.875489 C128.153,37.404189 127.354,38.064989 126.688,39.122389 C127.354,38.064989 128.02,37.404189 128.952,36.875489" id="Path" fill="#00B0AE"></path>
            <path d="M144.411,30.266689 L144.278,28.284189 L144.411,30.266689 C144.544,31.456289 144.411,32.249289 144.011,33.174489 C144.544,32.249289 144.544,31.324089 144.411,30.266689" id="Path" fill="#00B0AE"></path>
            <path d="M149.339,33.835889 L148.806,30.531589 L149.339,33.835889 Z" id="Path" fill="#00B0AE"></path>
            <path d="M143.34,37.536289 L144.406,45.202089 L143.34,37.536289 Z" id="Path" fill="#00B0AE"></path>
            <path d="M150.142,50.885689 C148.011,51.149989 146.679,50.621289 145.746,49.431789 C146.679,50.489189 148.011,51.149989 150.142,50.885689 C154.272,50.224789 155.604,46.788389 155.338,43.087689 C155.604,46.788389 154.272,50.224789 150.142,50.885689" id="Path" fill="#00B0AE"></path>
            <path d="M151.203,45.862589 C151.07,45.466089 150.937,45.069589 150.804,44.673089 L149.871,38.461089 L150.804,44.673089 C150.937,45.069589 151.07,45.466089 151.203,45.862589" id="Path" fill="#00B0AE"></path>
            <path d="M140.145,37.007489 L141.743,37.271789 L140.145,37.007489 Z" id="Path" fill="#00B0AE"></path>
            <path d="M153.465,33.174489 L149.602,33.703189 L153.465,33.174489 Z" id="Path" fill="#00B0AE"></path>
            <path d="M124.433,28.284489 C113.642,16.917889 98.3216,9.912889 81.6691,9.912889 C78.8715,9.912889 75.9406,10.177189 73.143,10.573689 C57.5563,12.820589 43.8347,21.015089 34.3761,33.439089 C32.2446,36.214689 30.5127,39.122389 28.9141,42.162289 L30.7791,41.897989 C31.9781,39.518889 33.4435,37.271989 35.0422,35.157289 C35.1754,34.892989 35.4418,34.628589 35.5751,34.364289 C41.1703,26.962789 48.2309,21.147289 56.3573,17.182189 C61.6861,14.670989 67.2814,12.820589 73.2762,12.027589 C74.6084,11.895389 75.9406,11.631089 77.2728,11.631089 C78.7383,11.498889 80.0705,11.498889 81.5359,11.498889 C91.1277,11.498889 100.32,13.877989 108.313,18.239589 C108.979,18.636089 109.645,18.900389 110.311,19.296889 C114.708,21.940289 118.837,25.112389 122.434,28.680989 L124.433,28.284489 Z" id="Path" fill-opacity="0.2" fill="#245580"></path>
            <path d="M49.5614,117.235789 C49.8278,117.367789 50.0943,117.631789 50.4939,117.764789 C51.0268,118.160789 51.6929,118.424789 52.2258,118.821789 C52.4922,118.953789 52.8919,119.217789 53.1583,119.350789 C53.6912,119.614789 54.2241,119.878789 54.757,120.275789 C55.2898,120.539789 55.8227,120.803789 56.2224,121.068789 C56.7553,121.332789 57.1549,121.464789 57.6878,121.729789 C65.0149,125.033789 73.1413,126.883789 81.5341,126.883789 C83.7989,126.883789 86.0636,126.751789 88.4616,126.487789 C88.9944,126.355789 89.5273,126.355789 90.1934,126.222789 C95.5222,125.429789 100.585,123.976789 105.247,121.993789 C117.637,116.574789 127.495,107.322789 133.756,95.824089 L131.891,96.088389 C129.094,101.110789 125.497,105.736789 121.367,109.701789 C113.507,117.103789 103.515,122.389789 92.1917,124.504789 C91.5256,124.636789 90.7263,124.769789 90.0602,124.901789 C89.6605,124.901789 89.2609,125.033789 88.8612,125.033789 C86.4633,125.297789 84.0653,125.429789 81.6674,125.429789 C68.6118,125.429789 56.4888,120.936789 46.6306,113.402789 C44.8987,112.080789 43.1668,110.626789 41.5682,109.040789 L39.9696,109.305789 L39.7031,109.305789 C41.8346,111.552789 44.2326,113.534789 46.7638,115.384789 C47.6963,115.913789 48.6289,116.574789 49.5614,117.235789" id="Path" fill-opacity="0.2" fill="#245580"></path>
            <path d="M21.4452,41.236989 C23.1771,37.668389 25.1754,34.099889 27.4401,30.795589 C27.8398,30.266889 28.2394,29.738189 28.6391,29.209589 C39.1635,15.199589 54.617,6.079819 72.0688,3.568589 C73.2677,3.436419 74.4667,3.304249 75.6657,3.172079 C76.8647,3.039909 78.0636,3.039909 79.2626,2.907739 L81.6606,2.907739 C84.1918,2.907739 86.5897,3.039909 89.1209,3.304249 C89.5205,3.304249 89.787,3.436419 90.1866,3.436419 C103.775,5.154629 116.298,11.234489 126.023,20.089789 C126.556,20.486289 127.089,21.014989 127.488,21.543689 C128.154,22.204589 128.82,22.865389 129.353,23.526289 C130.552,24.715789 131.618,26.037489 132.684,27.226989 L136.147,26.698289 C123.358,10.309289 103.509,-2.84217094e-14 81.6606,-2.84217094e-14 C78.3301,-2.84217094e-14 74.9996,0.264339 71.6691,0.660849 C53.418,3.304249 37.2984,12.820489 26.2412,27.491389 C23.3103,31.324289 20.9124,35.289389 18.9141,39.518789 C19.3137,39.783189 19.7134,39.915289 19.9798,40.179689 C20.6459,40.443989 21.0456,40.840489 21.4452,41.236989" id="Path" fill-opacity="0.2" fill="#245580"></path>
            <path d="M145.61,93.972889 L143.879,94.237289 L142.147,94.501589 C140.815,97.409289 139.349,100.316789 137.617,103.092789 C136.685,104.678789 135.619,106.132789 134.553,107.586789 C124.029,121.596789 108.575,130.715789 91.1236,133.227789 C87.9263,133.623789 84.729,133.887789 81.5317,133.887789 C61.682,133.887789 43.4309,124.900789 31.1747,110.493789 L27.7109,111.022789 C30.6418,114.591789 33.839,117.895789 37.436,120.935789 C49.559,130.980789 65.0125,136.927789 81.5317,136.927789 C83.7965,136.927789 86.1944,136.795789 88.4592,136.531789 C89.5249,136.399789 90.5907,136.266789 91.5232,136.134789 C109.774,133.491789 125.894,123.975789 136.951,109.304789 C139.616,105.867789 141.747,102.167789 143.612,98.334489 C144.411,96.880689 145.078,95.426789 145.61,93.972889" id="Path" fill-opacity="0.2" fill="#245580"></path>
            <path d="M28.9084,99.522789 C28.7752,98.598089 28.5088,97.805089 28.1091,97.144189 C27.0434,95.425989 25.3115,94.500789 23.18,94.104289 C22.3807,93.972189 21.5813,93.839989 20.782,93.707789 C20.3824,93.707789 20.1159,93.707789 19.7163,93.575589 C18.9169,93.443489 18.1176,93.443489 17.3183,93.311289 C14.6539,92.914789 12.7888,92.253889 12.256,89.874889 C12.256,89.742689 12.256,89.610489 12.256,89.610489 C11.9895,87.627989 12.9221,85.909789 14.6539,84.852389 C14.7871,84.720289 15.0536,84.588089 15.1868,84.588089 L15.32,84.588089 C15.9861,84.323689 16.6522,84.059389 17.5847,83.927189 L17.718,83.927189 L17.9844,83.927189 C21.5813,83.398589 24.2457,84.984589 25.4447,86.834989 C25.4447,86.834989 25.5779,86.834989 25.8444,86.702789 C25.9776,86.570589 26.244,86.306289 26.3773,86.041989 L26.3773,85.909789 C26.3773,85.777589 26.3773,85.645389 26.3773,85.645389 C26.244,85.116789 25.8444,84.455889 25.0451,83.795089 C24.2458,83.134289 25.0451,83.795089 24.9118,83.795089 C24.2457,83.266389 23.3132,82.869889 22.1142,82.605489 C21.3149,82.473389 20.3824,82.341189 19.3166,82.341189 C18.7837,82.341189 18.3841,82.341189 17.8512,82.473389 L17.718,82.473389 C17.5847,82.473389 17.5847,82.473389 17.4515,82.473389 C16.3858,82.605489 15.4532,83.001989 14.5207,83.398589 C13.9878,83.662889 13.5882,83.927189 13.1885,84.323689 C11.3234,85.777589 10.3909,87.892289 10.7905,90.139189 C11.057,91.989589 11.8563,93.179089 12.9221,93.972189 C14.3875,95.161689 16.519,95.425989 18.6505,95.690389 C18.9169,95.690389 19.1834,95.690389 19.4498,95.822489 C20.2491,95.954689 21.1817,95.954689 21.981,96.086889 L22.1142,96.086889 L22.5139,96.086889 C24.2457,96.351189 25.7112,96.879889 26.5105,97.937189 C26.9101,98.465889 27.1766,99.126789 27.3098,100.051789 L27.3098,100.844789 C27.3098,101.902789 27.0434,102.827789 26.3773,103.620789 L26.244,103.752789 C25.7112,104.413789 24.7786,104.941789 23.8461,105.470789 C23.5796,105.602789 23.3132,105.602789 23.0468,105.734789 C22.5139,105.867789 21.981,105.999789 21.4481,106.131789 C21.1817,106.131789 20.9152,106.263789 20.6488,106.263789 C20.3824,106.263789 20.1159,106.263789 19.8495,106.263789 C17.0519,106.263789 15.0536,105.206789 13.7214,103.752789 C13.5882,103.488789 13.3217,103.355789 13.1885,103.091789 C13.0553,102.959789 13.0553,102.827789 12.9221,102.695789 C12.7888,102.695789 12.1227,103.091789 11.9895,103.752789 L11.9895,104.016789 C11.9895,104.148789 11.9895,104.148789 12.1227,104.281789 C12.256,104.809789 12.7888,105.470789 13.5882,105.999789 C13.8546,106.131789 14.121,106.395789 14.3875,106.527789 C16.1193,107.453789 18.5173,107.981789 21.7146,107.585789 C22.7803,107.453789 23.8461,107.188789 24.7786,106.792789 C25.5779,106.527789 26.244,106.131789 26.7769,105.602789 C26.9101,105.470789 27.1766,105.338789 27.3098,105.074789 C28.5088,103.620789 29.1749,101.637789 28.9084,99.522789" id="Path" fill-opacity="0.2" fill="#245580"></path>
            <path d="M28.9097,81.680989 L28.9097,81.813189 C29.0429,82.341789 29.3093,82.473989 29.8422,82.473989 L38.1018,81.284489 L41.2991,103.488789 C41.2991,103.620789 41.2991,103.753789 41.4323,103.753789 C41.5655,104.017789 41.6988,104.149789 41.832,104.149789 L42.2316,104.149789 L42.4981,104.149789 C42.8977,104.149789 43.031,103.885789 43.1642,103.753789 C43.1642,103.620789 43.2974,103.356789 43.1642,103.224789 L42.8977,101.770789 L39.8337,81.020089 L48.0933,79.830589 C48.6262,79.698389 49.0258,79.434089 48.8926,78.905389 L48.8926,78.773289 C48.8926,78.641089 48.8926,78.508889 48.7594,78.376689 C48.7594,78.244589 48.6262,78.244589 48.493,78.112389 C48.3597,77.980189 48.0933,77.980189 47.8269,77.980189 L29.4425,80.623589 C29.0429,80.755789 28.7764,81.152289 28.9097,81.680989" id="Path" fill-opacity="0.2" fill="#245580"></path>
            <path d="M56.2203,100.846789 C56.3535,101.506789 56.8864,101.903789 57.5525,101.771789 L72.8728,99.524789 L73.1392,99.524789 C73.5389,99.392789 73.8053,99.128089 73.8053,98.863789 L73.8053,98.731589 L73.8053,98.599389 C73.6721,98.070689 73.4057,97.938589 72.7396,97.938589 L58.2186,100.052789 L56.7532,90.008389 L62.8813,89.083189 L67.6772,88.422289 C68.0769,88.422289 68.2101,88.290189 68.3433,88.025789 C68.4765,87.761389 68.3433,88.025789 68.3433,87.893589 L68.3433,87.761489 L68.3433,87.629289 L68.3433,87.497089 C68.3433,87.100589 67.9436,86.836289 67.544,86.836289 L67.4108,86.836289 L56.4867,88.422289 L55.1545,78.906089 L69.2758,76.923489 C69.8087,76.791389 70.2084,76.526989 70.0752,75.998389 L70.0752,75.866189 C69.9419,75.337489 69.6755,75.205289 69.0094,75.205289 L66.2118,75.601789 L54.0888,77.320089 C53.9556,77.320089 53.6891,77.452189 53.5559,77.584389 C53.2895,77.716589 53.1562,78.113089 53.1562,78.377389 L53.1562,78.641789 L56.2203,100.846789 Z" id="Path" fill-opacity="0.2" fill="#245580"></path>
            <path d="M74.6055,75.336789 L77.936,97.805689 C77.936,97.937889 78.0692,98.069989 78.0692,98.202189 C78.2024,98.334389 78.2024,98.466589 78.3356,98.466589 C78.6021,98.598689 78.8685,98.730889 79.1349,98.730889 L94.4552,96.483989 C94.8549,96.483989 95.1213,96.219689 95.2545,95.955289 C95.2545,95.823189 95.2545,95.690989 95.2545,95.558789 L95.2545,95.426689 C95.2545,95.294489 95.1213,95.162289 94.9881,95.030089 C94.8549,94.897989 94.5884,94.765789 94.322,94.765789 C94.0556,94.765789 94.1888,94.765789 94.0556,94.765789 L92.1905,95.030089 L79.5346,96.880489 L78.0692,86.835589 L79.9343,86.571289 L88.9932,85.249589 C89.5261,85.117389 89.9257,84.853089 89.7925,84.324389 L89.7925,84.192189 C89.7925,84.059989 89.6593,83.795689 89.5261,83.795689 C89.3929,83.663489 89.1264,83.531389 88.7268,83.663489 L77.8027,85.249589 L76.4705,75.733289 L83.5312,74.675989 L90.5918,73.618589 C90.7251,73.618589 90.8583,73.618589 90.9915,73.486389 C91.1247,73.486389 91.2579,73.354289 91.2579,73.354289 C91.3912,73.222089 91.3912,72.957789 91.3912,72.693389 L91.3912,72.561289 C91.2579,72.032589 90.9915,71.900389 90.3254,71.900389 L75.4048,74.015089 C75.0051,74.147289 74.6055,74.675989 74.6055,75.336789" id="Path" fill-opacity="0.2" fill="#245580"></path>
            <path d="M114.031,77.583589 C114.031,78.905289 113.632,79.962589 113.099,81.019989 C111.9,83.002589 109.369,84.456389 105.639,84.852889 L100.31,85.645989 L101.642,94.633489 C101.642,95.029989 101.509,95.426489 101.242,95.558689 C101.109,95.690889 100.976,95.690889 100.843,95.690889 L100.576,95.690889 C100.176,95.690889 99.91,95.558689 99.7768,95.294389 C99.6436,95.162189 99.6436,95.029989 99.6436,94.897789 L97.9118,82.738189 L96.3131,72.164589 C96.2202,72.072489 96.2569,71.916089 96.2876,71.784989 C96.3009,71.728089 96.3131,71.675989 96.3131,71.635889 C96.4463,71.239389 96.846,70.842889 97.2457,70.842889 L101.375,70.314189 L103.64,70.049889 C108.969,69.389089 112.433,71.107289 113.632,74.807989 C113.704,75.022689 113.737,75.237289 113.773,75.472989 C113.804,75.672589 113.837,75.887289 113.898,76.129689 C114.031,76.658389 114.031,77.054889 114.031,77.583589 L114.031,77.583589 Z M99.5072,80.226889 L100.04,84.059789 L105.768,83.266789 C105.902,83.266789 106.035,83.233789 106.168,83.200689 C106.301,83.167689 106.435,83.134589 106.568,83.134589 C110.698,82.341589 112.563,79.962589 112.03,76.526089 C111.969,76.344289 111.936,76.162489 111.905,75.993389 C111.869,75.793689 111.836,75.611889 111.763,75.468789 C110.964,72.428889 108.3,71.107189 104.037,71.767989 L98.4414,72.561089 L99.5072,80.226889 Z" id="Shape" fill-opacity="0.2" fill="#245580"></path>
            <path d="M134.686,90.668389 L136.018,90.536189 L137.084,90.404089 L137.217,90.404089 C137.483,90.404089 137.75,90.271889 137.883,90.007489 C138.016,89.875389 138.016,89.743189 138.016,89.478889 L138.016,89.346689 C137.883,88.817989 137.617,88.685789 136.95,88.685789 L136.817,88.685789 L135.085,88.950189 L130.29,89.610989 L122.43,90.800589 L120.964,80.755589 L131.888,79.169589 C132.421,79.037389 132.821,78.773089 132.687,78.244389 L132.687,78.112289 C132.554,77.583589 132.288,77.451389 131.622,77.451389 L120.698,79.037389 L120.431,76.922689 L119.365,69.653389 L120.831,69.388989 L133.487,67.538689 C134.02,67.406489 134.419,67.142089 134.286,66.613489 L134.286,66.481289 C134.286,66.084789 134.02,65.952589 133.62,65.820389 L133.487,65.820389 C133.354,65.820389 133.354,65.820389 133.22,65.820389 L118.3,67.935189 C117.767,68.067289 117.5,68.331689 117.367,68.728189 L117.367,69.256889 L120.698,91.725789 C120.698,91.990089 120.964,92.254389 121.097,92.518789 C121.231,92.650889 121.364,92.650889 121.364,92.650889 L121.497,92.650889 L121.897,92.650889 L134.286,90.800589 L134.686,90.668389 Z" id="Path" fill-opacity="0.2" fill="#245580"></path>
            <path d="M156.801,86.967589 L149.474,81.152089 L146.809,78.773089 L146.01,78.112189 L142.946,78.508689 L143.612,83.134689 L144.411,88.421489 L144.411,88.685789 L144.411,88.817989 L144.411,88.950189 C144.278,89.214489 144.145,89.478789 143.745,89.478789 L143.479,89.478789 C143.079,89.610989 142.813,89.346689 142.68,88.817989 L141.614,81.416489 L140.548,74.014989 L139.349,65.952589 C139.216,65.556089 139.349,65.291689 139.616,65.027389 C139.749,64.895189 139.882,64.763089 140.148,64.763089 L140.548,64.763089 L144.411,64.234389 L146.943,63.837889 L147.609,63.837889 L147.742,63.837889 C148.541,63.705689 149.341,63.705689 150.14,63.705689 L150.673,63.705689 C154.27,64.102189 156.401,66.084789 156.934,69.521189 C157.067,69.917689 157.067,70.314189 157.067,70.710689 C157.067,71.900189 156.801,72.957589 156.268,73.882789 C155.469,75.468789 153.87,76.658389 151.739,77.319189 C151.672,77.319189 151.605,77.352189 151.539,77.385289 C151.472,77.418289 151.406,77.451389 151.339,77.451389 C151.183,77.451389 151.072,77.496689 150.981,77.534289 C150.916,77.560889 150.861,77.583489 150.806,77.583489 C150.739,77.583489 150.64,77.616589 150.54,77.649589 C150.44,77.682689 150.34,77.715689 150.273,77.715689 C150.14,77.715689 150.007,77.748789 149.874,77.781789 C149.74,77.814789 149.607,77.847889 149.474,77.847889 L149.207,77.847889 L148.541,77.980089 L149.341,78.640889 L149.874,79.037389 L159.199,86.438889 C159.332,86.571089 158.932,87.364089 158.133,87.496289 C157.733,87.496289 157.334,87.364089 156.801,86.967589 L156.801,86.967589 Z M142.544,77.053889 L145.475,76.657289 L147.073,76.525189 L147.873,76.392989 L148.672,76.260789 C149.205,76.260789 149.738,76.128689 150.137,75.996489 C150.67,75.864289 151.203,75.732189 151.603,75.467789 C154.001,74.410489 155.067,72.427889 154.667,69.916689 C154.534,69.255789 154.401,68.594989 154.134,68.066289 C153.734,67.141089 153.068,66.480289 152.136,66.083789 C151.603,65.819389 151.07,65.687189 150.537,65.555089 C149.605,65.422889 148.672,65.422889 147.473,65.555089 L146.94,65.555089 L142.81,66.083789 L140.945,66.348089 L142.544,77.053889 Z" id="Shape" fill-opacity="0.2" fill="#245580"></path>
            <path d="M11.8566,70.578589 L9.85826,56.832889 L14.1213,56.172089 L13.7216,53.528689 L12.6559,53.660789 L9.4586,54.189489 L8.92573,50.753089 C8.79251,50.092189 8.65929,49.299189 8.79251,48.638389 C8.79251,47.845289 9.05895,47.052289 9.85826,46.655789 C10.1247,46.523589 10.3911,46.391489 10.924,46.391489 C11.4569,46.259289 13.0555,46.127089 13.322,47.184489 C12.9223,47.316689 12.5227,47.580989 12.2562,47.977489 C11.9898,48.373989 11.8566,48.770489 11.9898,49.299189 L11.9898,49.431389 C12.2562,51.149589 13.7216,51.678289 15.4535,51.413889 C16.6525,51.281789 17.4518,50.356589 17.7182,49.166989 C17.7182,49.034889 17.7182,48.770489 17.7182,48.638389 C17.7182,48.506189 17.7182,48.241889 17.7182,48.109689 C17.4518,46.259289 16.386,45.201889 15.0538,44.541089 C13.4552,43.880189 11.4569,43.748089 9.59182,44.012389 C4.92913,44.673289 2.26474,48.373989 2.93084,53.132089 L3.06405,53.792989 L3.06405,54.057289 L3.06405,54.718189 C3.06405,55.114689 2.79762,55.378989 2.13152,55.511189 L0.26644,55.775489 L-1.77635684e-15,55.775489 L0.26644,57.493789 L2.79762,57.890289 L3.59693,58.022389 L5.32879,69.917689 L5.59523,71.635889 L11.8566,70.578589 Z" id="Path" fill-opacity="0.2" fill="#245580"></path>
            <path d="M26.2503,56.436589 C26.6499,55.246989 27.316,54.189689 28.3818,53.793189 L28.515,53.793189 L28.7815,53.793189 C29.1811,53.793189 29.9804,53.793189 30.2469,54.189689 C29.9804,54.189689 29.8472,54.321789 29.5808,54.453989 C29.0479,54.850489 28.9147,55.511389 28.9147,56.172189 L28.9147,56.436589 C28.9147,56.568689 28.9147,56.568689 29.0479,56.700889 C29.1811,56.833089 29.1811,57.097389 29.3143,57.229589 C29.8472,58.022589 30.7798,58.286889 31.7123,58.286889 L32.3784,58.286889 C34.1102,58.022589 35.0428,56.568689 34.7763,54.982689 C34.7763,54.982689 34.7763,54.982689 34.7763,54.850489 C34.7763,54.718289 34.7763,54.586189 34.6431,54.453989 L34.6431,54.321789 C34.6431,54.321789 34.6431,54.321789 34.6431,54.189689 C34.3767,53.264489 33.977,52.603589 33.3109,52.074889 C32.5116,51.414089 31.5791,51.017589 30.5133,51.017589 C30.1137,51.017589 29.714,51.017589 29.3143,51.017589 C28.515,51.149789 27.8489,51.281889 27.316,51.546289 C26.6499,51.810589 26.1171,52.207089 25.7174,52.867989 C25.5842,53.000089 25.5842,53.132289 25.451,53.264489 C25.451,53.396589 25.3177,53.396589 25.3177,53.528789 C25.1845,53.793189 24.9181,54.189689 24.7849,54.453989 L24.1188,52.207089 L22.9198,52.339289 L14.6602,53.528789 L14.9266,55.114889 L15.3263,55.246989 L17.1913,55.643489 C17.4578,55.643489 17.7242,55.775689 17.8574,55.907889 C18.1239,56.039989 18.2571,56.304389 18.5235,56.436589 C18.79,56.833089 18.9232,57.361689 19.0564,58.022589 L19.9889,63.970189 L20.7883,69.256989 L27.0496,68.331889 L26.5167,64.763289 L26.2503,62.516389 C26.1171,61.326789 25.8506,59.212089 26.2503,57.361689 C26.1171,57.097389 26.1171,56.833089 26.2503,56.436589" id="Path" fill-opacity="0.2" fill="#245580"></path>
            <path d="M53.1523,56.965889 L47.5571,57.758889 L41.9619,58.684089 C42.0285,58.816289 42.0618,58.948489 42.0951,59.080589 C42.1284,59.212789 42.1617,59.344989 42.2283,59.477089 C43.0276,61.856189 44.6262,62.913589 46.3581,63.177889 C46.6291,63.267489 46.9615,63.235589 47.2719,63.205689 C47.4193,63.191589 47.5617,63.177889 47.6903,63.177889 C49.6886,62.913589 51.8201,61.591889 52.8859,59.477089 L53.8184,59.741489 C52.8859,63.706589 49.5554,65.689089 46.2249,66.217789 C44.493,66.482089 42.6279,66.217789 40.8961,65.556989 C40.7943,65.506489 40.712,65.475289 40.6417,65.448589 C40.5279,65.405489 40.4455,65.374289 40.3632,65.292589 C40.2966,65.226489 40.23,65.193489 40.1634,65.160389 C40.0968,65.127389 40.0302,65.094389 39.9636,65.028289 C37.832,63.838689 36.1002,61.723989 35.7005,58.816289 C34.9012,53.529489 38.3649,49.696589 43.5605,48.903489 C44.3598,48.771389 45.1591,48.771389 45.9584,48.771389 C49.8218,49.035689 52.4862,51.546889 53.1523,55.644189 L53.1523,56.172889 L53.1523,56.965889 Z M41.5625,54.585889 L41.5625,55.907589 L46.7581,55.246789 L47.6906,55.114589 C47.5574,54.850289 47.5574,54.453789 47.5574,54.189389 L47.5574,54.057289 C47.4242,52.338989 45.9588,51.149489 44.2269,51.413889 C43.2944,51.545989 42.7615,51.810389 42.3618,52.206889 C41.6957,52.735589 41.5625,53.660689 41.5625,54.585889 L41.5625,54.585889 Z" id="Shape" fill-opacity="0.2" fill="#245580"></path>
            <path d="M78.6043,66.349589 L78.8707,67.803489 L66.348,69.125189 L66.0816,67.671289 L65.9484,66.481789 L66.348,66.481789 C67.9467,66.349589 68.6128,65.820889 68.6128,64.499189 L68.6128,64.234889 C68.6128,64.102689 68.5795,63.970589 68.5462,63.838389 C68.5129,63.706189 68.4796,63.573989 68.4796,63.441889 L67.9467,59.873289 C67.1474,61.327189 65.9484,62.384489 64.2165,62.913189 C64.1613,62.913189 64.1062,62.935889 64.0415,62.962389 C63.9501,62.999989 63.8397,63.045389 63.6836,63.045389 C63.5504,63.045389 63.4505,63.078389 63.3506,63.111489 C63.2507,63.144489 63.1508,63.177489 63.0175,63.177489 C58.0884,63.838389 54.7579,60.401989 53.9586,55.247289 C53.8254,54.189989 53.8254,53.132589 54.0918,52.207389 C54.7579,49.035389 57.4223,46.524089 60.886,45.995389 C63.1508,45.731089 65.2823,45.995389 67.1474,47.317089 L67.2806,47.317089 C67.4138,47.449289 67.547,47.449289 67.6802,47.449289 C68.0799,47.317089 68.3463,47.052789 68.3463,46.788489 L68.4796,45.334589 L72.2097,44.805889 L74.8741,62.648889 C74.9352,62.830689 74.9683,63.012489 74.999,63.181589 C75.0353,63.381289 75.0684,63.563089 75.1405,63.706189 C75.1405,63.970589 75.2738,64.234889 75.407,64.367089 C75.6734,64.895689 76.0731,65.027889 76.606,65.160089 C77.0056,65.292289 77.4053,65.292289 77.9382,65.160089 L78.2046,65.160089 L78.471,65.160089 L78.6043,66.349589 Z M67.5413,56.568789 L67.5413,56.304389 C67.653,55.861389 67.5775,55.511089 67.4717,55.020289 C67.4513,54.925489 67.4297,54.825389 67.4081,54.718389 L67.2749,54.057489 L67.1417,53.264489 C67.1417,52.867989 67.0085,52.471489 66.8752,52.074989 C66.6088,51.281989 66.2092,50.356789 65.6763,49.695889 C65.0102,48.770789 63.9444,48.109889 62.6122,48.242089 C60.081,48.638589 60.2143,51.678489 60.4807,53.528889 C60.6139,54.454089 60.8804,55.511389 61.28,56.568789 C61.9461,58.286989 63.1451,59.872989 65.0102,59.608689 C65.2766,59.608689 65.6763,59.476489 65.9427,59.344289 C66.0093,59.278289 66.0759,59.245189 66.1425,59.212189 C66.2092,59.179089 66.2758,59.146089 66.3424,59.079989 L66.4756,58.947789 L66.8752,58.551289 C67.0085,58.551289 67.0085,58.419189 67.0085,58.419189 C67.1417,58.419189 67.1417,58.286989 67.1417,58.286989 C67.4081,57.758289 67.5413,57.097489 67.5413,56.568789 L67.5413,56.568789 Z" id="Shape" fill-opacity="0.2" fill="#245580"></path>
            <path d="M95.3906,58.815589 C96.4564,58.683389 97.3889,58.286889 98.055,57.890389 C100.32,56.436489 100.853,53.793089 100.586,51.017589 L100.187,51.017589 C100.053,52.207089 99.7869,54.057489 98.5879,54.718289 C98.4547,54.850489 98.1882,54.850489 97.9218,54.982689 C97.2557,55.114789 96.856,54.718289 96.5896,54.057489 C96.3231,53.660989 96.1899,53.132289 96.1899,52.735789 L94.5913,41.897789 L88.33,42.822989 L89.2625,49.034989 C89.3957,50.092389 89.5289,51.546189 89.2625,52.735789 C89.1293,53.264489 88.9961,53.793089 88.7296,54.189589 C88.33,54.850489 87.6639,55.379189 86.8645,55.511289 C86.3317,55.643489 85.7988,55.511289 85.3991,55.246989 C84.8662,54.982689 84.5998,54.321789 84.4666,53.528789 L83.0012,43.483889 L78.3385,44.144689 L73.6758,44.805589 L73.9422,46.391589 L76.0737,46.920289 C76.207,46.920289 76.3402,47.052489 76.4734,47.052489 C76.6066,47.184589 76.8731,47.184589 77.0063,47.316789 C77.1395,47.316789 77.1395,47.448989 77.1395,47.448989 C77.5392,47.845489 77.6724,48.506289 77.8056,49.299389 L78.8714,56.436489 C79.0046,57.097389 79.271,57.758189 79.5375,58.286889 C79.5375,58.419089 79.6707,58.419089 79.6707,58.551289 C80.6032,59.740789 82.0686,60.401589 83.534,60.401589 L84.4666,60.401589 C87.2642,60.005089 88.5964,59.079889 90.195,56.436489 C90.195,56.304389 90.3283,56.304389 90.3283,56.304389 L90.4615,56.304389 C90.5947,56.436489 90.7279,56.700889 90.7279,56.832989 C91.6605,58.286889 93.1259,59.212089 95.3906,58.815589" id="Path" fill-opacity="0.2" fill="#245580"></path>
            <path d="M117.77,46.259389 C117.903,46.655989 117.903,47.052489 117.903,47.448989 L106.446,49.034989 C106.58,49.960189 106.846,50.621089 107.246,51.281889 C108.045,52.471389 109.111,53.264489 110.31,53.528789 C110.976,53.660989 111.509,53.660989 112.175,53.528789 C114.173,53.264489 116.305,51.942789 117.371,49.827989 L117.637,49.960189 L118.303,50.092389 C117.371,54.057489 114.04,56.039989 110.71,56.568689 C108.045,56.965189 105.248,56.304389 103.116,54.586189 L102.716,54.189589 L102.45,53.925289 C101.384,52.867889 100.718,51.546189 100.318,49.960189 L100.318,49.827989 C100.185,49.563689 100.185,49.431489 100.185,49.299389 L100.185,48.770689 C99.6523,43.748189 103.249,40.047489 108.178,39.386589 C109.377,39.254389 110.443,39.254389 111.509,39.386589 C111.642,39.518789 111.775,39.518789 111.908,39.518789 C114.973,40.179589 117.237,42.426489 117.77,46.127289 L117.77,46.259389 Z M106.309,45.334089 L106.309,46.391489 L112.303,45.466289 C112.17,45.201989 112.17,44.937589 112.17,44.673289 L112.17,44.408889 C112.037,43.615889 111.504,42.822889 110.838,42.294189 C110.705,42.228089 110.605,42.195089 110.505,42.162089 C110.405,42.128989 110.305,42.095989 110.172,42.029889 C110.172,41.897689 110.039,41.897689 109.906,41.897689 L109.639,41.897689 L108.84,41.897689 C107.108,42.162089 106.442,43.087189 106.309,44.408889 L106.309,44.541089 L106.309,44.937589 L106.309,45.334089 Z" id="Shape" fill-opacity="0.2" fill="#245580"></path>
            <path d="M131.882,35.949889 C130.816,36.081989 130.017,36.346389 129.217,36.742889 C129.084,36.742889 128.951,36.875089 128.818,37.007189 C128.018,37.535889 127.219,38.196789 126.553,39.254089 C126.286,39.650589 126.02,40.047089 125.887,40.443589 L125.088,37.403689 L122.157,37.800189 L115.629,38.725389 L115.762,39.386289 L115.895,40.311489 L118.027,40.840189 C118.293,40.840189 118.56,40.972289 118.693,41.104489 C119.226,41.368789 119.492,41.897489 119.759,42.558389 C119.759,42.822689 119.892,43.086989 119.892,43.351389 L121.357,53.131989 L121.624,54.585789 L124.421,54.189289 L128.018,53.660589 L127.086,47.448589 C126.819,45.333889 126.819,41.368789 129.617,40.972289 C130.816,40.840189 131.882,41.236689 132.281,42.293989 C132.281,42.426189 132.415,42.558389 132.415,42.822689 C132.681,44.673089 132.681,46.523489 132.947,48.373789 C133.214,49.827689 133.747,51.017189 134.546,51.810289 C135.079,52.206789 135.612,52.471089 136.411,52.603289 L136.811,52.603289 L138.276,52.603289 C142.406,51.942389 143.605,48.505989 143.339,44.805189 L142.939,44.805189 C142.939,45.069589 142.806,45.466089 142.806,45.862589 C142.539,47.184289 142.006,48.505989 140.807,48.770289 C139.742,48.902489 139.209,47.580789 139.076,46.655589 C138.809,44.408689 138.676,42.161889 138.276,39.914989 C137.61,36.875089 134.546,35.553389 131.882,35.949889" id="Path" fill-opacity="0.2" fill="#245580"></path>
            <path d="M140.15,37.007189 L141.749,37.271589 L143.347,37.535889 L144.413,45.201789 L144.546,46.523489 C144.68,47.580789 145.079,48.638189 145.612,49.298989 C146.545,50.488589 147.877,51.149389 150.008,50.752889 C154.138,50.092089 155.47,46.655589 155.204,42.954889 L154.804,42.954889 L154.804,43.351389 C154.538,44.805289 154.138,46.523489 152.673,46.787789 C152.007,46.919989 151.474,46.391289 151.207,45.730389 C151.074,45.333889 150.941,44.937389 150.808,44.540889 L149.875,38.328889 L149.609,36.610689 L153.738,35.949889 L153.605,35.421189 L153.206,33.042089 L149.342,33.570789 L149.076,33.570789 L148.543,30.266589 L148.01,26.565789 L143.88,27.094489 L144.013,28.019689 L144.147,30.002189 C144.28,31.191789 144.147,31.984789 143.747,32.909989 C143.747,32.909989 143.747,33.042089 143.614,33.042089 C143.081,33.967289 141.615,34.495989 140.417,34.760289 L139.617,34.892489 L139.617,35.156889 L140.15,37.007189 Z" id="Path" fill-opacity="0.2" fill="#245580"></path>
            <path d="M160.133,25.640489 L155.204,26.301389 C155.071,26.301389 154.938,26.433489 154.938,26.565689 C154.938,26.697889 155.071,26.697889 155.204,26.697889 L157.335,26.433489 L158.268,32.381189 C158.268,32.513389 158.401,32.645489 158.534,32.645489 L158.668,32.645489 C158.801,32.645489 158.934,32.513389 158.801,32.381189 L157.868,26.433489 L160,26.169189 C160.133,26.169189 160.266,26.036989 160.266,25.904889 C160.4,25.640489 160.266,25.640489 160.133,25.640489" id="Path" fill-opacity="0.2" fill="#245580"></path>
            <path d="M167.988,30.927689 L167.055,24.847789 C167.055,24.715689 166.922,24.583489 166.655,24.583489 L166.522,24.583489 C166.256,24.583489 166.256,24.715689 166.122,24.979989 L164.657,29.209489 L161.993,25.508689 C161.859,25.244389 161.726,25.112189 161.46,25.244389 L161.327,25.244389 C161.06,25.244389 160.927,25.376489 161.06,25.640889 L161.993,31.720689 C161.993,31.852889 162.126,31.984989 162.259,31.984989 L162.392,31.984989 C162.525,31.984989 162.525,31.852889 162.525,31.720689 L161.593,25.905189 L164.257,29.605989 C164.391,29.738089 164.524,29.870289 164.79,29.870289 C165.057,29.870289 165.19,29.738089 165.19,29.473789 L166.655,25.244389 L167.588,31.059789 C167.588,31.191989 167.721,31.324189 167.854,31.324189 C167.988,31.191989 167.988,31.191989 167.988,30.927689" id="Path" fill-opacity="0.2" fill="#245580"></path>
        </g>
    </g>
</svg>