<svg width="48" height="48" viewBox="0 0 48 48" fill="none" xmlns="http://www.w3.org/2000/svg">
<g filter="url(#filter0_d)">
<circle cx="23.6923" cy="21.6923" r="21.6923" fill="#00A6A5"/>
</g>
<circle cx="39.359" cy="34.9487" r="4.82051" fill="#6CC04A"/>
<path d="M34.514 19.5569C34.0747 13.8843 29.2881 9.64111 23.6691 9.64111C23.0679 9.64111 22.4435 9.68649 21.8192 9.79995C16.4083 10.7076 12.5004 15.5634 12.8704 20.9638C13.0554 23.8909 14.4428 26.4322 16.5008 28.2248C15.969 29.1324 15.5527 29.6543 14.7203 30.4031C14.3503 30.7208 14.5816 31.3334 15.0672 31.3334C15.1134 31.3334 15.1828 31.3334 15.229 31.3334C16.6395 31.3334 18.5126 30.9931 19.8075 30.2216C21.033 30.6527 22.3279 30.8796 23.6922 30.8796C24.3166 30.8796 24.964 30.8342 25.6115 30.7208C31.0224 29.7905 34.884 24.9346 34.514 19.5569ZM19.2063 21.826C18.4524 21.826 17.842 21.227 17.842 20.4873C17.842 19.7476 18.4524 19.1485 19.2063 19.1485C19.9601 19.1485 20.5705 19.7476 20.5705 20.4873C20.5705 21.227 19.9601 21.826 19.2063 21.826ZM23.7153 21.826C22.9615 21.826 22.3511 21.227 22.3511 20.4873C22.3511 19.7476 22.9615 19.1485 23.7153 19.1485C24.4692 19.1485 25.0796 19.7476 25.0796 20.4873C25.0796 21.227 24.4692 21.826 23.7153 21.826ZM28.2013 21.826C27.4475 21.826 26.837 21.227 26.837 20.4873C26.837 19.7476 27.4475 19.1485 28.2013 19.1485C28.9551 19.1485 29.5656 19.7476 29.5656 20.4873C29.5656 21.227 28.9551 21.826 28.2013 21.826Z" fill="#F2F1E9"/>
<defs>
<filter id="filter0_d" x="0" y="0" width="47.3846" height="47.3846" filterUnits="userSpaceOnUse" color-interpolation-filters="sRGB">
<feFlood flood-opacity="0" result="BackgroundImageFix"/>
<feColorMatrix in="SourceAlpha" type="matrix" values="0 0 0 0 0 0 0 0 0 0 0 0 0 0 0 0 0 0 127 0" result="hardAlpha"/>
<feOffset dy="2"/>
<feGaussianBlur stdDeviation="1"/>
<feComposite in2="hardAlpha" operator="out"/>
<feColorMatrix type="matrix" values="0 0 0 0 0 0 0 0 0 0 0 0 0 0 0 0 0 0 0.25 0"/>
<feBlend mode="normal" in2="BackgroundImageFix" result="effect1_dropShadow"/>
<feBlend mode="normal" in="SourceGraphic" in2="effect1_dropShadow" result="shape"/>
</filter>
</defs>
</svg>
